ply
format ascii 1.0
comment Created by Blender 2.80 (sub 75) - www.blender.org, source file: 'Grass.blend'
element vertex 12
property float x
property float y
property float z
property float nx
property float ny
property float nz
property float s
property float t
property uchar red
property uchar green
property uchar blue
property uchar alpha
element face 6
property list uchar uint vertex_indices
end_header
-0.500000 0.000000 0.000000 -0.000000 -1.000000 -0.000000 0.000000 0.000000 0 0 0 255
0.500000 0.000000 0.000000 -0.000000 -1.000000 -0.000000 1.000000 0.000000 0 0 0 255
0.500000 0.000000 1.000000 -0.000000 -1.000000 -0.000000 1.000000 1.000000 255 255 255 255
-0.500000 0.000000 1.000000 0.000000 -1.000000 -0.000000 0.000000 1.000000 255 255 255 255
-0.050548 0.443626 0.000000 -0.887252 -0.461284 -0.000000 0.000000 0.000000 0 0 0 255
0.410736 -0.443626 0.000000 -0.887252 -0.461284 -0.000000 1.000000 0.000000 0 0 0 255
0.410736 -0.443626 1.000000 -0.887252 -0.461284 -0.000000 1.000000 1.000000 255 255 255 255
-0.050548 0.443626 1.000000 -0.887252 -0.461284 0.000000 0.000000 1.000000 255 255 255 255
0.274553 0.337390 0.000000 -0.674779 0.738019 0.000000 0.000000 0.000000 0 0 0 255
-0.463466 -0.337390 0.000000 -0.674779 0.738019 0.000000 1.000000 0.000000 0 0 0 255
-0.463466 -0.337390 1.000000 -0.674779 0.738019 0.000000 1.000000 1.000000 255 255 255 255
0.274553 0.337390 1.000000 -0.674779 0.738019 0.000000 0.000000 1.000000 255 255 255 255
3 0 1 2
3 0 2 3
3 4 5 6
3 4 6 7
3 8 9 10
3 8 10 11
