ply
format ascii 1.0
comment Created by Blender 2.80 (sub 75) - www.blender.org, source file: ''
element vertex 88
property float x
property float y
property float z
property float nx
property float ny
property float nz
property float s
property float t
property uchar red
property uchar green
property uchar blue
property uchar alpha
element face 47
property list uchar uint vertex_indices
end_header
-0.250000 1.000034 -0.398244 -0.554700 0.832050 0.000000 0.251237 0.510588 255 255 255 255
-0.400000 0.900034 -0.398244 -0.554700 0.832050 0.000000 0.249344 0.497535 255 255 255 255
-0.400000 0.900034 0.526756 -0.554700 0.832050 0.000000 0.332021 0.470991 255 255 255 255
-0.250000 1.000034 -0.398244 -0.554704 0.832048 -0.000001 0.251237 0.510588 255 255 255 255
-0.400000 0.900034 0.526756 -0.554704 0.832048 -0.000001 0.332021 0.470991 255 255 255 255
-0.250000 1.000035 0.526756 -0.554704 0.832048 -0.000001 0.337860 0.490855 255 255 255 255
-0.500000 0.750035 0.526756 -0.832049 0.554703 0.000000 0.324614 0.451285 255 255 255 255
-0.400000 0.900034 0.526756 -0.832049 0.554703 0.000000 0.332021 0.470991 255 255 255 255
-0.400000 0.900034 -0.398244 -0.832049 0.554703 0.000000 0.249344 0.497535 255 255 255 255
-0.500000 0.750035 -0.398244 -0.832049 0.554703 0.000000 0.243902 0.485333 255 255 255 255
-0.250000 0.000035 0.601756 -0.000000 0.000000 1.000000 0.448037 0.660501 255 255 255 255
-0.250000 0.750035 0.601756 -0.000000 0.000000 1.000000 0.548208 0.636101 255 255 255 255
-0.419160 0.750035 0.601756 -0.000000 0.000000 1.000000 0.554205 0.659687 255 255 255 255
-0.419349 0.000035 0.601756 -0.000000 0.000000 1.000000 0.451424 0.687796 255 255 255 255
-0.500000 0.000035 -0.398244 -0.000000 -0.000000 -1.000000 0.195226 0.444806 255 255 255 255
-0.500000 0.750035 -0.398244 -0.000000 -0.000000 -1.000000 0.243902 0.485333 255 255 255 255
-0.250000 0.750035 -0.398244 -0.000000 -0.000000 -1.000000 0.233894 0.502143 255 255 255 255
-0.250000 0.000035 -0.398244 -0.000000 0.000000 -1.000000 0.180377 0.465307 255 255 255 255
0.500000 0.750035 0.601756 0.000000 -1.000000 0.000000 0.546918 0.527761 255 255 255 255
-0.250000 0.750035 0.601756 0.000000 -1.000000 0.000000 0.548208 0.636101 255 255 255 255
-0.250000 0.750035 0.488429 0.000000 -1.000000 0.000000 0.532921 0.625300 255 255 255 255
0.500000 0.750035 0.488429 0.000000 -1.000000 0.000000 0.533072 0.528017 255 255 255 255
0.500000 1.000034 -0.398244 0.000000 1.000000 -0.000001 0.233298 0.563864 255 255 255 255
-0.250000 1.000034 -0.398244 0.000000 1.000000 -0.000001 0.251237 0.510588 255 255 255 255
-0.250000 1.000035 0.526756 0.000000 1.000000 -0.000001 0.337860 0.490855 255 255 255 255
0.500000 1.000035 0.526756 0.000000 1.000000 -0.000001 0.337860 0.601181 255 255 255 255
-0.400000 0.900034 -0.398244 0.000000 0.000000 -1.000000 0.249344 0.497535 255 255 255 255
-0.250000 1.000034 -0.398244 0.000000 0.000000 -1.000000 0.251237 0.510588 255 255 255 255
-0.500000 0.000035 0.526756 -1.000000 0.000000 0.000000 0.267547 0.375881 255 255 255 255
-0.500000 0.750035 0.526756 -1.000000 0.000000 0.000000 0.324614 0.451285 255 255 255 255
-0.500000 0.750035 -0.398244 -1.000000 0.000000 0.000000 0.243902 0.485333 255 255 255 255
-0.500000 0.000035 -0.398244 -1.000000 0.000000 0.000000 0.195226 0.444806 255 255 255 255
0.500000 0.750035 0.601756 0.000000 0.000000 1.000000 0.546918 0.527761 255 255 255 255
0.500000 0.918365 0.601756 0.000000 0.000000 1.000000 0.567888 0.527451 255 255 255 255
-0.250000 0.918458 0.601756 0.000000 0.000000 1.000000 0.572514 0.633717 255 255 255 255
-0.351191 0.851226 0.601756 -0.000000 0.000000 1.000000 0.565330 0.648116 255 255 255 255
0.500000 0.000035 0.488429 -0.000000 0.000000 1.000000 0.725566 0.316769 255 255 255 255
0.500000 0.750035 0.488429 -0.000000 0.000000 1.000000 0.996413 0.316769 255 255 255 255
-0.250000 0.750035 0.488429 -0.000000 0.000000 1.000000 0.996413 0.587616 255 255 255 255
-0.250000 0.000035 0.488429 -0.000000 0.000000 1.000000 0.725566 0.587616 255 255 255 255
-0.419160 0.750035 0.601756 -0.616076 0.413812 0.670232 0.554205 0.659687 255 255 255 255
-0.351191 0.851226 0.601756 -0.616076 0.413812 0.670232 0.565330 0.648116 255 255 255 255
-0.400000 0.900034 0.526756 -0.616076 0.413812 0.670232 0.576880 0.656296 255 255 255 255
-0.419160 0.750035 0.601756 -0.619430 0.412956 0.667663 0.554205 0.659687 255 255 255 255
-0.400000 0.900034 0.526756 -0.619430 0.412956 0.667663 0.576880 0.656296 255 255 255 255
-0.500000 0.750035 0.526756 -0.619430 0.412956 0.667663 0.559159 0.674277 255 255 255 255
-0.250000 1.000035 0.526756 -0.411802 0.617697 0.669977 0.587885 0.633738 255 255 255 255
-0.400000 0.900034 0.526756 -0.411802 0.617697 0.669977 0.576880 0.656296 255 255 255 255
-0.351191 0.851226 0.601756 -0.411802 0.617697 0.669977 0.565330 0.648116 255 255 255 255
-0.250000 1.000035 0.526756 -0.410119 0.617270 0.671401 0.587885 0.633738 255 255 255 255
-0.351191 0.851226 0.601756 -0.410119 0.617270 0.671401 0.565330 0.648116 255 255 255 255
-0.250000 0.918458 0.601756 -0.410119 0.617270 0.671401 0.572514 0.633717 255 255 255 255
-0.419349 0.000035 0.601756 -0.680131 0.000171 0.733091 0.451424 0.687796 255 255 255 255
-0.419160 0.750035 0.601756 -0.680131 0.000171 0.733091 0.554205 0.659687 255 255 255 255
-0.500000 0.750035 0.526756 -0.680131 0.000171 0.733091 0.559159 0.674277 255 255 255 255
-0.419349 0.000035 0.601756 -0.680986 0.000000 0.732296 0.451424 0.687796 255 255 255 255
-0.500000 0.750035 0.526756 -0.680986 0.000000 0.732296 0.559159 0.674277 255 255 255 255
-0.500000 0.000035 0.526756 -0.680986 0.000000 0.732296 0.455961 0.704446 255 255 255 255
0.500000 1.000035 0.526756 -0.000000 0.676808 0.736160 0.584480 0.527353 255 255 255 255
-0.250000 1.000035 0.526756 -0.000000 0.676808 0.736160 0.587885 0.633738 255 255 255 255
-0.250000 0.918458 0.601756 -0.000000 0.676808 0.736160 0.572514 0.633717 255 255 255 255
0.500000 1.000035 0.526756 0.000084 0.676390 0.736544 0.584480 0.527353 255 255 255 255
-0.250000 0.918458 0.601756 0.000084 0.676390 0.736544 0.572514 0.633717 255 255 255 255
0.500000 0.918365 0.601756 0.000084 0.676390 0.736544 0.567888 0.527451 255 255 255 255
0.500000 1.000034 -0.398244 -0.000000 -0.000000 -1.000000 0.233298 0.563864 255 255 255 255
0.500000 0.750035 -0.398244 -0.000000 0.000000 -1.000000 0.213057 0.556640 255 255 255 255
0.500000 0.000035 -0.398244 -0.000000 0.000000 -1.000000 0.147441 0.533222 255 255 255 255
-0.250000 0.750035 0.601756 1.000000 0.000000 0.000000 0.548208 0.636101 255 255 255 255
-0.250000 0.000035 0.601756 1.000000 0.000000 0.000000 0.448037 0.660501 255 255 255 255
-0.250000 0.000035 0.488429 1.000000 0.000000 0.000000 0.450748 0.639120 255 255 255 255
-0.250000 0.750035 0.488429 1.000000 0.000000 -0.000000 0.532921 0.625300 255 255 255 255
-0.500000 0.000035 0.526756 -0.000000 -1.000000 0.000000 0.087701 0.124896 255 255 255 255
-0.500000 0.000035 -0.398244 -0.000000 -1.000000 0.000000 0.018829 0.018491 255 255 255 255
-0.419349 0.000035 0.601756 -0.000000 -1.000000 0.000000 0.087016 0.122381 255 255 255 255
-0.250000 0.000035 0.601756 -0.000000 -1.000000 0.000000 0.018829 0.018491 255 255 255 255
-0.250000 0.000035 0.488429 -0.000000 -1.000000 0.000000 0.086913 0.115029 255 255 255 255
-0.250000 0.000035 -0.398244 0.000000 -1.000000 0.000000 0.018829 0.018491 255 255 255 255
0.500000 0.000035 0.488429 -0.000000 -1.000000 0.000000 0.018829 0.018491 255 255 255 255
0.500000 0.000035 -0.398244 0.000000 -1.000000 0.000000 0.041100 0.099033 255 255 255 255
0.500000 0.750035 -0.398244 1.000000 -0.000000 0.000000 0.051011 0.102570 255 255 255 255
0.500000 0.750035 0.488429 1.000000 -0.000000 0.000000 0.018829 0.018491 255 255 255 255
0.500000 0.000035 -0.398244 1.000000 -0.000000 0.000000 0.041100 0.099033 255 255 255 255
0.500000 0.000035 0.488429 1.000000 0.000000 -0.000000 0.018829 0.018491 255 255 255 255
0.500000 0.750035 0.601756 1.000000 0.000000 -0.000000 0.018829 0.018491 255 255 255 255
0.500000 0.750035 -0.398244 1.000000 0.000000 -0.000000 0.018829 0.018491 255 255 255 255
0.500000 0.918365 0.601756 1.000000 0.000000 -0.000000 0.018829 0.018491 255 255 255 255
0.500000 1.000034 -0.398244 1.000000 -0.000000 0.000000 0.054068 0.103662 255 255 255 255
0.500000 1.000035 0.526756 1.000000 -0.000000 0.000000 0.018829 0.018491 255 255 255 255
3 0 1 2
3 3 4 5
3 6 7 8
3 6 8 9
3 10 11 12
3 10 12 13
3 14 15 16
3 14 16 17
3 18 19 20
3 18 20 21
3 22 23 24
3 22 24 25
3 15 26 27
3 15 27 16
3 28 29 30
3 28 30 31
3 32 33 34
3 32 34 11
3 11 34 35
3 11 35 12
3 36 37 38
3 36 38 39
3 40 41 42
3 43 44 45
3 46 47 48
3 49 50 51
3 52 53 54
3 55 56 57
3 58 59 60
3 61 62 63
3 16 27 64
3 16 64 65
3 17 16 65
3 17 65 66
3 67 68 69
3 67 69 70
3 71 72 73
3 73 72 74
3 74 72 75
3 76 75 72
3 75 76 77
3 78 77 76
3 79 80 81
3 82 81 80
3 83 84 85
3 86 87 79
3 85 84 87
