ply
format ascii 1.0
comment Created by Blender 2.80 (sub 75) - www.blender.org, source file: ''
element vertex 87
property float x
property float y
property float z
property float nx
property float ny
property float nz
property float s
property float t
property uchar red
property uchar green
property uchar blue
property uchar alpha
element face 44
property list uchar uint vertex_indices
end_header
0.250000 0.918458 0.601756 0.000000 -0.000000 1.000000 0.570955 0.415360 255 255 255 255
-0.500000 0.918365 0.601756 0.000000 -0.000000 1.000000 0.567888 0.527451 255 255 255 255
0.250000 0.750035 0.601756 0.000000 -0.000000 1.000000 0.544231 0.415240 255 255 255 255
-0.500000 0.750035 0.488429 0.000000 -0.000000 1.000000 0.996413 0.316769 255 255 255 255
-0.500000 0.000035 0.488429 0.000000 -0.000000 1.000000 0.725566 0.316769 255 255 255 255
0.250000 0.000035 0.488429 0.000000 -0.000000 1.000000 0.725566 0.045921 255 255 255 255
0.250000 1.000034 -0.398244 0.000000 1.000000 -0.000001 0.213453 0.616459 255 255 255 255
-0.500000 1.000035 0.526756 0.000000 1.000000 -0.000001 0.337860 0.601181 255 255 255 255
0.250000 1.000035 0.526756 0.000000 1.000000 -0.000001 0.268008 0.686578 255 255 255 255
0.400000 0.900034 0.526756 0.832049 0.554703 -0.000000 0.250912 0.698256 255 255 255 255
0.500000 0.750035 0.526756 0.832049 0.554703 -0.000000 0.232702 0.708821 255 255 255 255
0.500000 0.750035 -0.398244 0.832049 0.554703 -0.000000 0.191785 0.631364 255 255 255 255
0.250000 0.000035 -0.398244 0.000000 0.000000 -1.000000 0.129935 0.606645 255 255 255 255
-0.500000 0.000035 -0.398244 0.000000 0.000000 -1.000000 0.147441 0.533222 255 255 255 255
-0.500000 1.000034 -0.398244 0.000000 0.000000 -1.000000 0.233298 0.563864 255 255 255 255
-0.500000 1.000034 -0.398244 -1.000000 0.000000 -0.000000 0.025612 0.051791 255 255 255 255
-0.500000 0.000035 -0.398244 -1.000000 0.000000 -0.000000 0.042632 0.113342 255 255 255 255
-0.500000 0.750035 0.488429 -1.000000 0.000000 -0.000000 0.025612 0.051791 255 255 255 255
0.250000 0.000035 0.601756 0.000000 0.000000 1.000000 0.414729 0.402772 255 255 255 255
0.419349 0.000035 0.601756 0.000000 0.000000 1.000000 0.412405 0.370771 255 255 255 255
0.419160 0.750035 0.601756 0.000000 0.000000 1.000000 0.547192 0.387101 255 255 255 255
0.250000 1.000034 -0.398244 0.000000 0.000000 -1.000000 0.213453 0.616459 255 255 255 255
0.400000 0.900034 -0.398244 0.000000 0.000000 -1.000000 0.203723 0.625365 255 255 255 255
0.500000 0.750035 -0.398244 0.000000 0.000000 -1.000000 0.191785 0.631364 255 255 255 255
0.250000 0.000035 -0.398244 -0.000000 -1.000000 -0.000000 0.497667 0.948119 255 255 255 255
0.500000 0.000035 -0.398244 -0.000000 -1.000000 -0.000000 0.542089 0.948119 255 255 255 255
0.250000 0.000035 0.488429 -0.000000 -1.000000 -0.000000 0.497667 0.790567 255 255 255 255
-0.500000 0.000035 0.488429 0.000000 -1.000000 0.000000 0.364401 0.790567 255 255 255 255
-0.500000 0.000035 -0.398244 0.000000 -1.000000 0.000000 0.364401 0.948119 255 255 255 255
0.250000 0.750035 0.601756 0.000000 1.000000 0.000000 0.544231 0.415240 255 255 255 255
0.250000 0.750035 0.488429 0.000000 1.000000 0.000000 0.528688 0.430694 255 255 255 255
-0.500000 0.750035 0.488429 0.000000 1.000000 0.000000 0.533072 0.528017 255 255 255 255
-0.500000 0.918365 0.601756 -1.000000 0.000000 0.000000 0.025612 0.051791 255 255 255 255
-0.500000 1.000035 0.526756 -1.000000 0.000000 0.000000 0.025612 0.051791 255 255 255 255
0.500000 0.000035 0.526756 0.000000 -1.000000 0.000000 0.542089 0.783757 255 255 255 255
0.419160 0.750035 0.601756 0.619430 0.412956 0.667663 0.547192 0.387101 255 255 255 255
0.500000 0.750035 0.526756 0.619430 0.412956 0.667663 0.551185 0.368353 255 255 255 255
0.400000 0.900034 0.526756 0.619430 0.412956 0.667663 0.574624 0.388990 255 255 255 255
0.250000 1.000035 0.526756 0.410119 0.617270 0.671402 0.587885 0.414768 255 255 255 255
0.250000 0.918458 0.601756 0.410119 0.617270 0.671402 0.570955 0.415360 255 255 255 255
0.351191 0.851226 0.601756 0.410119 0.617270 0.671402 0.561733 0.399617 255 255 255 255
0.250000 1.000035 0.526756 0.411802 0.617697 0.669977 0.587885 0.414768 255 255 255 255
0.351191 0.851226 0.601756 0.411802 0.617697 0.669977 0.561733 0.399617 255 255 255 255
0.400000 0.900034 0.526756 0.411802 0.617697 0.669977 0.574624 0.388990 255 255 255 255
0.500000 0.750035 0.526756 0.680986 0.000000 0.732296 0.188123 0.548415 255 255 255 255
0.419349 0.000035 0.601756 0.680986 0.000000 0.732296 0.136769 0.555956 255 255 255 255
0.500000 0.000035 0.526756 0.680986 0.000000 0.732296 0.248224 0.604394 255 255 255 255
0.351191 0.851226 0.601756 0.616076 0.413812 0.670232 0.100405 0.558873 255 255 255 255
0.419160 0.750035 0.601756 0.616076 0.413812 0.670232 0.100405 0.530705 255 255 255 255
0.400000 0.900034 0.526756 0.616076 0.413812 0.670232 0.246988 0.537070 255 255 255 255
0.500000 0.750035 0.526756 1.000000 0.000000 -0.000000 0.232702 0.708821 255 255 255 255
0.500000 0.000035 -0.398244 1.000000 0.000000 -0.000000 0.128449 0.631915 255 255 255 255
0.500000 0.750035 -0.398244 1.000000 0.000000 -0.000000 0.191785 0.631364 255 255 255 255
0.419349 0.000035 0.601756 0.000000 -1.000000 0.000000 0.527759 0.770430 255 255 255 255
0.250000 0.000035 0.601756 -1.000000 0.000000 0.000000 0.414729 0.402772 255 255 255 255
0.250000 0.750035 0.601756 -1.000000 0.000000 0.000000 0.544231 0.415240 255 255 255 255
0.250000 0.750035 0.488429 -1.000000 0.000000 0.000000 0.528688 0.430694 255 255 255 255
0.250000 0.000035 0.601756 0.000000 -1.000000 0.000000 0.497667 0.770430 255 255 255 255
0.250000 0.750035 0.488429 0.000000 0.000000 1.000000 0.996413 0.045921 255 255 255 255
-0.500000 0.750035 0.601756 0.000000 -0.000000 1.000000 0.546918 0.527761 255 255 255 255
0.500000 0.000035 -0.398244 0.000000 0.000000 -1.000000 0.128449 0.631915 255 255 255 255
-0.500000 0.750035 0.601756 -0.000000 1.000000 0.000000 0.546918 0.527761 255 255 255 255
0.500000 0.000035 0.526756 1.000000 0.000000 0.000000 0.140789 0.731054 255 255 255 255
-0.500000 0.000035 0.488429 -1.000000 -0.000000 -0.000000 0.109366 0.088356 255 255 255 255
0.250000 1.000034 -0.398244 0.554704 0.832048 -0.000001 0.213453 0.616459 255 255 255 255
0.250000 1.000035 0.526756 0.554704 0.832048 -0.000001 0.187020 0.499539 255 255 255 255
0.400000 0.900034 0.526756 0.554704 0.832048 -0.000001 0.162412 0.506921 255 255 255 255
0.250000 1.000034 -0.398244 0.554700 0.832050 -0.000000 0.213453 0.616459 255 255 255 255
0.400000 0.900034 0.526756 0.554700 0.832050 -0.000000 0.162412 0.506921 255 255 255 255
0.400000 0.900034 -0.398244 0.554700 0.832050 -0.000000 0.203723 0.625365 255 255 255 255
0.400000 0.900034 -0.398244 0.832049 0.554703 0.000000 0.203723 0.625365 255 255 255 255
0.351191 0.851226 0.601756 -0.000000 0.000000 1.000000 0.561733 0.399617 255 255 255 255
0.250000 0.000035 0.488429 -1.000000 0.000000 0.000000 0.419055 0.425011 255 255 255 255
-0.500000 1.000034 -0.398244 0.000000 1.000000 -0.000001 0.233298 0.563864 255 255 255 255
-0.500000 0.750035 0.601756 -1.000000 -0.000000 -0.000000 0.025612 0.051791 255 255 255 255
0.419160 0.750035 0.601756 0.680131 0.000171 0.733091 0.271214 0.565494 255 255 255 255
0.419349 0.000035 0.601756 0.680131 0.000171 0.733091 0.039767 0.565451 255 255 255 255
0.500000 0.750035 0.526756 0.680131 0.000171 0.733091 0.271214 0.531464 255 255 255 255
0.351191 0.851226 0.601756 0.000000 -0.000000 1.000000 0.186180 0.446769 255 255 255 255
0.250000 0.750035 0.601756 0.000000 -0.000000 1.000000 0.100192 0.429881 255 255 255 255
0.419160 0.750035 0.601756 0.000000 -0.000000 1.000000 0.186180 0.372124 255 255 255 255
-0.500000 0.918365 0.601756 -0.000084 0.676390 0.736544 0.243274 0.587564 255 255 255 255
0.250000 0.918458 0.601756 -0.000084 0.676390 0.736544 0.052942 0.587546 255 255 255 255
-0.500000 1.000035 0.526756 -0.000084 0.676390 0.736544 0.243274 0.559424 255 255 255 255
0.250000 1.000035 0.526756 -0.000000 0.676808 0.736160 0.132715 0.394858 255 255 255 255
-0.500000 1.000035 0.526756 -0.000000 0.676808 0.736160 0.238520 0.638163 255 255 255 255
0.250000 0.918458 0.601756 -0.000000 0.676808 0.736160 0.155740 0.650394 255 255 255 255
3 0 1 2
3 3 4 5
3 6 7 8
3 9 10 11
3 12 13 14
3 15 16 17
3 18 19 20
3 21 22 23
3 14 21 12
3 24 25 26
3 26 27 28
3 2 18 20
3 29 30 31
3 32 33 17
3 12 21 23
3 33 15 17
3 25 34 26
3 35 36 37
3 38 39 40
3 41 42 43
3 44 45 46
3 47 48 49
3 50 51 52
3 34 53 26
3 54 55 56
3 53 57 26
3 3 5 58
3 1 59 2
3 23 60 12
3 29 31 61
3 50 62 51
3 16 63 17
3 64 65 66
3 67 68 69
3 9 11 70
3 71 0 2
3 54 56 72
3 6 73 7
3 26 28 24
3 17 74 32
3 75 76 77
3 78 79 80
3 81 82 83
3 84 85 86
