ply
format ascii 1.0
comment Created by Blender 2.80 (sub 75) - www.blender.org, source file: 'Rock1.blend'
element vertex 165
property float x
property float y
property float z
property float nx
property float ny
property float nz
property float s
property float t
element face 192
property list uchar uint vertex_indices
end_header
-0.630920 -0.592326 -0.226328 -0.089511 -0.184027 -0.978820 0.137636 0.563411
-0.537873 -1.154378 -0.057997 -0.216498 -0.524277 -0.823542 0.058285 0.569867
-1.052088 -0.954513 -0.064600 -0.300027 -0.513565 -0.803858 0.082613 0.506661
-1.155731 -0.459469 -0.217847 -0.258034 -0.191534 -0.946928 0.152906 0.498683
-0.677921 -0.698183 1.329703 -0.094790 -0.136937 0.986023 0.155028 0.344089
-1.176430 -0.646380 1.281231 -0.401135 -0.175481 0.899045 0.206316 0.378186
-1.019775 -1.105961 1.174950 -0.341929 -0.514267 0.786493 0.155630 0.402329
-0.610285 -1.327881 1.147948 -0.312601 -0.614643 0.724204 0.099783 0.387655
1.115930 -0.980967 1.067893 0.781915 -0.305032 0.543626 0.896175 0.282885
0.808457 -0.902078 1.346412 0.446211 -0.268929 0.853542 0.854473 0.349296
0.444005 -1.513821 1.032712 0.335551 -0.828120 0.448988 0.794976 0.248970
0.936321 -1.426494 0.677546 0.403729 -0.872250 0.275857 0.870663 0.174892
-0.944509 -1.392342 0.743625 -0.386761 -0.918912 -0.077364 0.949240 0.587705
-0.610285 -1.327881 1.147948 -0.312601 -0.614643 0.724204 0.944083 0.694636
-1.019775 -1.105961 1.174950 -0.341929 -0.514267 0.786493 0.905653 0.682602
-1.281588 -1.218077 0.883991 -0.647511 -0.687704 0.328257 0.916733 0.604517
-1.719440 0.699776 0.916506 -0.888943 0.275674 0.365734 0.336809 0.082005
-1.356023 0.716849 1.245036 -0.451552 0.229072 0.862300 0.369246 0.000842
-0.681862 1.481573 1.180458 -0.351421 0.608203 0.711722 0.489191 0.000000
-0.974527 1.431442 0.926074 -0.565966 0.811243 0.146825 0.460672 0.063535
-0.751048 1.123006 0.149059 -0.161809 0.690725 -0.704764 0.485748 0.254952
-0.321458 0.702046 -0.060305 -0.012482 0.481948 -0.876095 0.512673 0.310590
-0.692441 0.835835 -0.114299 0.079409 0.589068 -0.804132 0.481603 0.323059
-1.063276 1.015607 0.074521 -0.235359 0.744041 -0.625263 0.447322 0.276247
-0.359688 0.596748 -0.219676 0.026948 0.367046 -0.929777 0.276846 0.583529
-0.476225 0.037390 -0.274043 -0.038667 0.031922 -0.998718 0.215363 0.578539
-1.094633 0.118459 -0.254018 -0.173009 0.017853 -0.984741 0.223692 0.502410
-0.862364 0.537108 -0.219203 -0.051271 0.286721 -0.956633 0.270084 0.523882
0.548058 0.657622 -0.284113 -0.017396 0.187567 -0.982086 0.288525 0.695621
0.480423 0.111060 -0.312115 0.082949 0.022675 -0.996277 0.226456 0.694739
-0.015789 0.060242 -0.312706 -0.050264 0.064119 -0.996643 0.220811 0.635843
0.172793 0.532460 -0.188473 -0.140294 0.289041 -0.946959 0.266533 0.646047
0.383454 -0.533170 -0.298149 0.117130 -0.140782 -0.983062 0.149628 0.688747
0.243586 -1.191072 -0.141476 0.103122 -0.495315 -0.862545 0.060049 0.668982
-0.154563 -1.228987 -0.114500 -0.082766 -0.520493 -0.849818 0.053708 0.620010
-0.106274 -0.595963 -0.274351 -0.067598 -0.151921 -0.986053 0.140662 0.629249
0.342781 -0.863692 1.370886 0.087588 -0.179388 0.979858 0.046020 0.277128
-0.198010 -0.630818 1.360380 -0.049379 -0.084292 0.995209 0.115533 0.299946
-0.344848 -1.730000 1.152380 -0.228645 -0.808283 0.542558 0.042023 0.402498
-0.065279 -1.796044 1.102928 0.139134 -0.914914 0.378826 0.011393 0.383384
0.801564 0.716665 1.333314 0.156194 0.149815 0.976287 0.133867 0.094672
0.062998 0.994314 1.276304 0.032197 0.172338 0.984497 0.226136 0.127633
0.046107 0.253730 1.351565 -0.019715 0.050295 0.998535 0.165692 0.199396
0.611501 0.290780 1.352344 0.089602 0.018342 0.995788 0.116225 0.149680
-0.544178 0.889409 1.290048 -0.034150 0.121708 0.991974 0.273683 0.187557
-1.356023 0.716849 1.245036 -0.451552 0.229072 0.862300 0.335575 0.267841
-1.177093 -0.009798 1.303243 -0.355815 -0.019776 0.934324 0.258354 0.321530
-0.603343 0.011276 1.343584 -0.052278 0.027955 0.998230 0.206193 0.274302
1.347667 -0.746821 0.189763 0.922941 -0.140812 -0.358196 0.422948 0.654063
1.267461 -1.008356 0.630730 0.947264 -0.259285 0.188269 0.520455 0.684734
1.155268 -1.381585 0.478039 0.667074 -0.744896 -0.009461 0.477461 0.726331
1.014587 -1.312948 0.183491 0.499191 -0.679678 -0.537370 0.404599 0.713241
1.323792 0.856060 0.127379 0.921262 0.190039 -0.339305 0.422729 0.459207
1.267107 0.689727 0.600208 0.993439 -0.031343 -0.109806 0.529375 0.479105
1.175182 -0.169032 0.692469 0.985717 -0.039613 0.163579 0.539575 0.580737
1.268899 0.063884 0.241091 0.977905 -0.021668 -0.207831 0.439840 0.553878
1.423543 0.707035 0.897206 0.990905 -0.092959 0.097201 0.744126 0.814485
1.231954 0.594471 1.216866 0.620960 -0.023713 0.783441 0.672331 0.787452
0.975431 -0.047895 1.246558 0.539476 -0.101138 0.835871 0.683844 0.711964
1.050912 -0.197512 1.068502 0.905545 -0.092441 0.413984 0.731678 0.707183
-0.706694 -1.346937 0.190636 -0.292245 -0.932127 -0.213691 0.016271 0.536299
-1.043570 -1.289593 0.402928 -0.432539 -0.847713 -0.307016 0.006598 0.482318
-1.648060 -0.853586 0.452009 -0.895047 -0.443709 -0.044740 0.054401 0.402498
-1.571341 -0.770709 0.110279 -0.735191 -0.388165 -0.555681 0.090851 0.431859
0.494274 -1.399456 0.153436 0.129032 -0.907712 -0.399243 0.857058 0.070133
0.667029 -1.448684 0.439932 0.098392 -0.988220 -0.116977 0.855242 0.125920
0.260077 -1.365451 0.452640 0.021577 -0.994629 -0.101199 0.818683 0.137473
-0.135120 -1.505020 0.156677 -0.091159 -0.973479 -0.209662 0.786060 0.070157
0.524189 -1.410453 0.691410 0.160741 -0.960448 -0.227332 0.829103 0.182611
-0.065279 -1.796044 1.102928 0.139134 -0.914914 0.378826 0.720806 0.251159
-0.344848 -1.730000 1.152380 -0.228645 -0.808283 0.542558 0.693981 0.268226
-0.066870 -1.602193 0.652060 -0.076510 -0.912839 -0.401013 0.758736 0.168010
-1.346437 0.808084 -0.078697 -0.463301 0.501694 -0.730491 0.408067 0.318081
-1.759897 0.724614 0.319614 -0.906888 0.361217 -0.216926 0.348488 0.225548
-1.185727 1.133555 0.481559 -0.516556 0.817255 -0.255318 0.431026 0.176751
-1.550380 -0.487642 0.033513 -0.780297 -0.137455 -0.610096 0.834672 0.401576
-1.646483 -0.459024 0.462612 -0.995697 -0.063295 0.067232 0.821728 0.494375
-1.648881 0.064031 0.429819 -0.996155 -0.078402 -0.038728 0.758928 0.488146
-1.548443 0.255587 -0.153801 -0.671896 0.032685 -0.739891 0.747834 0.361119
-1.434319 -0.746778 1.017100 -0.801080 -0.208991 0.560839 0.853441 0.628842
-1.176430 -0.646380 1.281231 -0.401135 -0.175481 0.899045 0.844101 0.700647
-1.177093 -0.009798 1.303243 -0.355815 -0.019776 0.934324 0.766741 0.707183
-1.483055 -0.045330 1.068517 -0.829615 -0.093142 0.550462 0.766456 0.640000
-0.263198 1.716774 0.916780 -0.274514 0.960051 -0.053987 0.554998 0.057463
-0.775458 1.402503 0.497559 -0.368542 0.831874 -0.414838 0.491069 0.166304
0.802037 1.528586 0.850318 0.423261 0.890988 0.164098 0.661203 0.071636
0.556317 1.496503 0.449266 0.238197 0.849300 -0.471084 0.642437 0.169965
-0.199824 1.536424 0.336820 -0.111850 0.823481 -0.556169 0.565426 0.199969
0.153226 1.832230 0.839249 0.166082 0.986084 -0.000488 0.608937 0.072162
0.512712 1.198383 0.114694 0.025208 0.769189 -0.638508 0.628288 0.255903
0.468949 1.026806 -0.142859 -0.096011 0.494247 -0.863979 0.619708 0.321108
0.067265 0.783522 -0.072713 -0.145390 0.433424 -0.889340 0.560004 0.310321
-0.180515 1.233899 0.060946 -0.113956 0.548387 -0.828394 0.556413 0.271543
1.267461 -1.008356 0.630730 0.947264 -0.259285 0.188269 0.934356 0.187628
1.155268 -1.381585 0.478039 0.667074 -0.744896 -0.009461 0.907061 0.133559
1.050912 -0.197512 1.068502 0.905545 -0.092441 0.413984 0.622627 0.581780
1.115930 -0.980967 1.067893 0.781915 -0.305032 0.543626 0.617335 0.678426
0.975431 -0.047895 1.246558 0.539476 -0.101138 0.835871 0.662917 0.562066
0.808457 -0.902078 1.346412 0.446211 -0.268929 0.853542 0.672331 0.661064
-1.043570 -1.289593 0.402928 -0.432539 -0.847713 -0.307016 0.939564 0.506329
-1.648060 -0.853586 0.452009 -0.895047 -0.443709 -0.044740 0.869574 0.490922
0.260077 -1.365451 0.452640 0.021577 -0.994629 -0.101199 0.791582 0.866218
-0.066870 -1.602193 0.652060 -0.076510 -0.912839 -0.401013 0.744126 0.821215
-0.944509 -1.392342 0.743625 -0.386761 -0.918912 -0.077364 0.752056 0.707183
-1.043570 -1.289593 0.402928 -0.432539 -0.847713 -0.307016 0.791426 0.711743
-0.066870 -1.602193 0.652060 -0.076510 -0.912839 -0.401013 1.000000 0.606532
-0.344848 -1.730000 1.152380 -0.228645 -0.808283 0.542558 0.999879 0.706758
-1.719440 0.699776 0.916506 -0.888943 0.275674 0.365734 0.672331 0.596657
-1.759897 0.724614 0.319614 -0.906888 0.361217 -0.216926 0.677773 0.459778
-1.356023 0.716849 1.245036 -0.451552 0.229072 0.862300 0.674914 0.687648
-0.180515 1.233899 0.060946 -0.113956 0.548387 -0.828394 0.387737 0.801509
0.067265 0.783522 -0.072713 -0.145390 0.433424 -0.889340 0.336809 0.833560
-0.321458 0.702046 -0.060305 -0.012482 0.481948 -0.876095 0.336920 0.785916
-0.751048 1.123006 0.149059 -0.161809 0.690725 -0.704764 0.384519 0.726331
-0.359688 0.596748 -0.219676 0.026948 0.367046 -0.929777 0.506205 0.350977
-0.862364 0.537108 -0.219203 -0.051271 0.286721 -0.956633 0.448079 0.354288
0.172793 0.532460 -0.188473 -0.140294 0.289041 -0.946959 0.559475 0.342029
0.548058 0.657622 -0.284113 -0.017396 0.187567 -0.982086 0.609960 0.361119
0.896930 1.078061 -0.116701 0.234199 0.560564 -0.794275 0.324683 0.722893
1.042022 0.637866 -0.190494 0.514176 0.102939 -0.851466 0.278588 0.749240
0.468949 1.026806 -0.142859 -0.096011 0.494247 -0.863979 0.320949 0.673747
1.045407 0.147996 -0.157597 0.568682 -0.043275 -0.821375 0.218381 0.752553
1.008866 -0.470257 -0.126459 0.516556 -0.115604 -0.848384 0.143231 0.752483
0.736314 -1.066762 -0.076033 0.316813 -0.408124 -0.856166 0.069266 0.722735
0.342781 -0.863692 1.370886 0.087588 -0.179388 0.979858 0.808347 0.361119
0.975431 -0.047895 1.246558 0.539476 -0.101138 0.835871 0.056221 0.145884
0.808457 -0.902078 1.346412 0.446211 -0.268929 0.853542 0.000000 0.241327
1.231954 0.594471 1.216866 0.620960 -0.023713 0.783441 0.085645 0.065345
1.303753 1.023542 1.083753 0.627979 0.350200 0.694968 0.116277 0.014773
0.770454 1.299703 1.122192 0.275735 0.520707 0.807947 0.187902 0.035191
0.105258 1.585067 1.126820 0.171178 0.548204 0.818628 0.273048 0.064123
-0.174992 1.801163 1.147173 -0.050722 0.756157 0.652364 0.316518 0.068429
-0.681862 1.481573 1.180458 -0.351421 0.608203 0.711722 0.336809 0.140426
1.008866 -0.470257 -0.126459 0.516556 -0.115604 -0.848384 0.340137 0.610197
0.736314 -1.066762 -0.076033 0.316813 -0.408124 -0.856166 0.336809 0.674909
1.045407 0.147996 -0.157597 0.568682 -0.043275 -0.821375 0.339988 0.536299
1.042022 0.637866 -0.190494 0.514176 0.102939 -0.851466 0.336833 0.476818
0.896930 1.078061 -0.116701 0.234199 0.560564 -0.794275 0.353162 0.419686
1.081272 1.287556 0.175115 0.504654 0.739525 -0.445387 0.429528 0.400325
1.200361 1.221685 0.538245 0.724326 0.625446 -0.290017 0.517650 0.412671
1.423543 0.707035 0.897206 0.990905 -0.092959 0.097201 0.604166 0.482239
1.385825 1.181814 0.807576 0.865413 0.500931 0.009430 0.586459 0.423461
1.303753 1.023542 1.083753 0.627979 0.350200 0.694968 0.646477 0.441109
1.231954 0.594471 1.216866 0.620960 -0.023713 0.783441 0.670954 0.491413
-0.135120 -1.505020 0.156677 -0.091159 -0.973479 -0.209662 0.000000 0.608449
-1.043570 -1.289593 0.402928 -0.432539 -0.847713 -0.307016 0.694133 0.143704
-0.706694 -1.346937 0.190636 -0.292245 -0.932127 -0.213691 0.736508 0.092307
0.494274 -1.399456 0.153436 0.129032 -0.907712 -0.399243 0.012308 0.682984
1.014587 -1.312948 0.183491 0.499191 -0.679678 -0.537370 0.019832 0.742597
1.014587 -1.312948 0.183491 0.499191 -0.679678 -0.537370 0.913859 0.076969
-1.548443 0.255587 -0.153801 -0.671896 0.032685 -0.739891 0.232244 0.440506
-1.346437 0.808084 -0.078697 -0.463301 0.501694 -0.730491 0.291247 0.454530
-1.346437 0.808084 -0.078697 -0.463301 0.501694 -0.730491 0.685316 0.388716
-1.550380 -0.487642 0.033513 -0.780297 -0.137455 -0.610096 0.130148 0.436240
-1.571341 -0.770709 0.110279 -0.735191 -0.388165 -0.555681 0.867108 0.417288
-0.174992 1.801163 1.147173 -0.050722 0.756157 0.652364 0.563922 0.000091
0.105258 1.585067 1.126820 0.171178 0.548204 0.818628 0.582099 0.007382
0.802037 1.528586 0.850318 0.423261 0.890988 0.164098 0.207942 0.000000
0.153226 1.832230 0.839249 0.166082 0.986084 -0.000488 0.293309 0.025246
0.802037 1.528586 0.850318 0.423261 0.890988 0.164098 0.579472 0.365264
0.770454 1.299703 1.122192 0.275735 0.520707 0.807947 0.639569 0.392860
0.556317 1.496503 0.449266 0.238197 0.849300 -0.471084 0.477201 0.361119
1.200361 1.221685 0.538245 0.724326 0.625446 -0.290017 0.693981 0.150197
1.081272 1.287556 0.175115 0.504654 0.739525 -0.445387 0.693822 0.237100
0.896930 1.078061 -0.116701 0.234199 0.560564 -0.794275 0.668575 0.311882
3 0 1 2
3 0 2 3
3 4 5 6
3 4 6 7
3 8 9 10
3 8 10 11
3 12 13 14
3 12 14 15
3 16 17 18
3 16 18 19
3 20 21 22
3 20 22 23
3 24 25 26
3 24 26 27
3 28 29 30
3 28 30 31
3 32 33 34
3 32 34 35
3 36 37 38
3 36 38 39
3 40 41 42
3 40 42 43
3 44 45 46
3 44 46 47
3 48 49 50
3 48 50 51
3 52 53 54
3 52 54 55
3 56 57 58
3 56 58 59
3 60 61 62
3 60 62 63
3 64 65 66
3 64 66 67
3 68 69 70
3 68 70 71
3 72 73 74
3 72 74 23
3 75 76 77
3 75 77 78
3 79 80 81
3 79 81 82
3 83 84 74
3 83 74 19
3 85 86 87
3 85 87 88
3 89 90 91
3 89 91 92
3 25 0 3
3 25 3 26
3 30 35 0
3 30 0 25
3 35 34 1
3 35 1 0
3 37 4 7
3 37 7 38
3 42 47 4
3 42 4 37
3 47 46 5
3 47 5 4
3 93 8 11
3 93 11 94
3 54 95 96
3 54 96 49
3 95 97 98
3 95 98 96
3 99 12 15
3 99 15 100
3 101 102 103
3 101 103 104
3 105 106 13
3 105 13 12
3 73 16 19
3 73 19 74
3 77 82 107
3 77 107 108
3 82 81 109
3 82 109 107
3 84 20 23
3 84 23 74
3 87 92 20
3 87 20 84
3 110 111 112
3 110 112 113
3 21 114 115
3 21 115 22
3 91 116 114
3 91 114 21
3 31 30 25
3 31 25 24
3 90 117 116
3 90 116 91
3 118 119 28
3 118 28 120
3 119 121 29
3 119 29 28
3 29 32 35
3 29 35 30
3 121 122 32
3 121 32 29
3 122 123 33
3 122 33 32
3 9 124 69
3 9 69 10
3 125 43 36
3 125 36 126
3 43 42 37
3 43 37 36
3 127 40 43
3 127 43 125
3 128 129 40
3 128 40 127
3 129 130 41
3 129 41 40
3 41 44 47
3 41 47 42
3 130 131 44
3 130 44 41
3 131 132 45
3 131 45 44
3 133 48 51
3 133 51 134
3 135 55 48
3 135 48 133
3 55 54 49
3 55 49 48
3 136 52 55
3 136 55 135
3 137 138 52
3 137 52 136
3 138 139 53
3 138 53 52
3 53 140 95
3 53 95 54
3 139 141 140
3 139 140 53
3 141 142 143
3 141 143 140
3 1 60 63
3 1 63 2
3 34 144 60
3 34 60 1
3 67 66 145
3 67 145 146
3 33 147 144
3 33 144 34
3 123 148 147
3 123 147 33
3 149 94 65
3 149 65 64
3 65 68 71
3 65 71 66
3 94 11 68
3 94 68 65
3 11 10 69
3 11 69 68
3 115 72 23
3 115 23 22
3 26 150 151
3 26 151 27
3 78 77 108
3 78 108 152
3 3 153 150
3 3 150 26
3 2 63 153
3 2 153 3
3 154 100 76
3 154 76 75
3 76 79 82
3 76 82 77
3 100 15 79
3 100 79 76
3 15 14 80
3 15 80 79
3 155 83 19
3 155 19 18
3 156 88 83
3 156 83 155
3 88 87 84
3 88 84 83
3 129 157 158
3 129 158 130
3 142 141 159
3 142 159 160
3 141 139 161
3 141 161 159
3 86 89 92
3 86 92 87
3 162 163 89
3 162 89 86
3 163 164 90
3 163 90 89
