# Blender v2.80 (sub 75) OBJ File: 'SceneExporter_Original.blend'
# www.blender.org
o Cylinder
v -0.000000 -1.000000 -1.000000
v -0.000000 1.000000 -1.000000
v 0.195090 -1.000000 -0.980786
v 0.195090 1.000000 -0.980786
v 0.382683 -1.000000 -0.923880
v 0.382683 1.000000 -0.923880
v 0.555570 -1.000000 -0.831470
v 0.555570 1.000000 -0.831470
v 0.707106 -1.000000 -0.707107
v 0.707106 1.000000 -0.707107
v 0.831469 -1.000000 -0.555570
v 0.831469 1.000000 -0.555570
v 0.923879 -1.000000 -0.382684
v 0.923879 1.000000 -0.382684
v 0.980785 -1.000000 -0.195091
v 0.980785 1.000000 -0.195091
v 1.000000 -1.000000 -0.000000
v 1.000000 1.000000 -0.000000
v 0.980785 -1.000000 0.195090
v 0.980785 1.000000 0.195090
v 0.923879 -1.000000 0.382683
v 0.923879 1.000000 0.382683
v 0.831469 -1.000000 0.555570
v 0.831469 1.000000 0.555570
v 0.707106 -1.000000 0.707106
v 0.707106 1.000000 0.707106
v 0.555570 -1.000000 0.831469
v 0.555570 1.000000 0.831469
v 0.382683 -1.000000 0.923879
v 0.382683 1.000000 0.923879
v 0.195090 -1.000000 0.980785
v 0.195090 1.000000 0.980785
v -0.000001 -1.000000 1.000000
v -0.000001 1.000000 1.000000
v -0.195091 -1.000000 0.980785
v -0.195091 1.000000 0.980785
v -0.382684 -1.000000 0.923879
v -0.382684 1.000000 0.923879
v -0.555571 -1.000000 0.831469
v -0.555571 1.000000 0.831469
v -0.707108 -1.000000 0.707106
v -0.707108 1.000000 0.707106
v -0.831470 -1.000000 0.555569
v -0.831470 1.000000 0.555569
v -0.923880 -1.000000 0.382682
v -0.923880 1.000000 0.382682
v -0.980786 -1.000000 0.195089
v -0.980786 1.000000 0.195089
v -1.000000 -1.000000 -0.000001
v -1.000000 1.000000 -0.000001
v -0.980786 -1.000000 -0.195091
v -0.980786 1.000000 -0.195091
v -0.923880 -1.000000 -0.382685
v -0.923880 1.000000 -0.382685
v -0.831470 -1.000000 -0.555572
v -0.831470 1.000000 -0.555572
v -0.707106 -1.000000 -0.707108
v -0.707106 1.000000 -0.707108
v -0.555570 -1.000000 -0.831471
v -0.555570 1.000000 -0.831471
v -0.382683 -1.000000 -0.923880
v -0.382683 1.000000 -0.923880
v -0.195089 -1.000000 -0.980786
v -0.195089 1.000000 -0.980786
vt 0.542392 0.500000
vt 0.503266 0.000000
vt 0.542392 0.000000
vt 0.503266 0.500000
vt 0.466411 0.000000
vt 0.466411 0.500000
vt 0.433241 0.000000
vt 0.433241 0.500000
vt 0.405033 0.000000
vt 0.405033 0.500000
vt 0.427196 1.000000
vt 0.405033 1.000000
vt 0.427196 0.500000
vt 0.455404 1.000000
vt 0.455404 0.500000
vt 0.488574 1.000000
vt 0.488574 0.500000
vt 0.525429 1.000000
vt 0.525429 0.500000
vt 0.564555 1.000000
vt 0.564555 0.500000
vt 0.604447 1.000000
vt 0.604447 0.500000
vt 0.643573 1.000000
vt 0.643573 0.500000
vt 0.680429 1.000000
vt 0.680429 0.500000
vt 0.713598 1.000000
vt 0.944668 0.500000
vt 0.907812 0.000000
vt 0.944667 0.000000
vt 0.907812 0.500000
vt 0.868686 0.000000
vt 0.868686 0.500000
vt 0.828794 0.000000
vt 0.828794 0.500000
vt 0.789668 0.000000
vt 0.789668 0.500000
vt 0.752812 0.000000
vt 0.752812 0.500000
vt 0.719643 0.000000
vt 1.000000 1.000000
vt 0.966831 0.500000
vt 1.000000 0.500000
vt 0.966831 1.000000
vt 0.929975 0.500000
vt 0.929975 1.000000
vt 0.890849 0.500000
vt 0.890849 1.000000
vt 0.850957 0.500000
vt 0.850957 1.000000
vt 0.811831 0.500000
vt 0.811831 1.000000
vt 0.774976 0.500000
vt 0.774976 1.000000
vt 0.741806 0.500000
vt 0.741806 1.000000
vt 0.713598 0.500000
vt 0.719643 0.500000
vt 0.691435 0.000000
vt 0.719643 0.000000
vt 0.691435 0.500000
vt 0.658266 0.000000
vt 0.658266 0.500000
vt 0.621410 0.000000
vt 0.182570 0.000000
vt 0.405033 0.224292
vt 0.222463 0.497592
vt 0.621410 0.500000
vt 0.582284 0.000000
vt 0.582284 0.500000
vt 0.073420 0.553136
vt 0.359821 0.587790
vt 0.331613 0.939641
vt 0.713598 0.500000
vt 0.719643 0.500000
vt 0.713598 1.000000
vt 0.000000 0.273300
vt 0.000000 0.224292
vt 0.007783 0.176225
vt 0.023049 0.130947
vt 0.045212 0.090198
vt 0.073420 0.055544
vt 0.106589 0.028316
vt 0.143444 0.009561
vt 0.222463 0.000000
vt 0.261588 0.009561
vt 0.298444 0.028316
vt 0.331613 0.055543
vt 0.359821 0.090198
vt 0.381984 0.130947
vt 0.397251 0.176225
vt 0.405033 0.273300
vt 0.397251 0.321367
vt 0.381985 0.366645
vt 0.359822 0.407395
vt 0.331613 0.442049
vt 0.298444 0.469277
vt 0.261589 0.488031
vt 0.182570 0.497592
vt 0.143445 0.488031
vt 0.106589 0.469277
vt 0.073420 0.442049
vt 0.045212 0.407394
vt 0.023049 0.366645
vt 0.007783 0.321367
vt 0.045212 0.904987
vt 0.023049 0.864238
vt 0.007783 0.818960
vt 0.000000 0.770893
vt 0.000000 0.721884
vt 0.007783 0.673818
vt 0.023049 0.628540
vt 0.045212 0.587790
vt 0.106589 0.525908
vt 0.143445 0.507154
vt 0.182570 0.497592
vt 0.222463 0.497592
vt 0.261588 0.507153
vt 0.298444 0.525908
vt 0.331613 0.553136
vt 0.381984 0.628539
vt 0.397251 0.673817
vt 0.405033 0.721884
vt 0.405033 0.770893
vt 0.397251 0.818960
vt 0.381985 0.864238
vt 0.359821 0.904987
vt 0.298444 0.966869
vt 0.261588 0.985624
vt 0.222463 0.995185
vt 0.182570 0.995185
vt 0.143445 0.985624
vt 0.106589 0.966869
vt 0.073420 0.939641
vn 0.0000 0.6857 -0.7279
vn 0.1420 -0.6857 -0.7139
vn 0.0000 -0.6857 -0.7279
vn 0.1420 0.6857 -0.7139
vn 0.2785 -0.6857 -0.6725
vn 0.2785 0.6857 -0.6725
vn 0.4044 -0.6857 -0.6052
vn 0.4044 0.6857 -0.6052
vn 0.5147 -0.6857 -0.5147
vn 0.5147 0.6857 -0.5147
vn 0.6052 -0.6857 -0.4044
vn 0.6052 0.6857 -0.4044
vn 0.6725 -0.6857 -0.2785
vn 0.6725 0.6857 -0.2785
vn 0.7139 -0.6857 -0.1420
vn 0.7139 0.6857 -0.1420
vn 0.7279 -0.6857 0.0000
vn 0.7279 0.6857 0.0000
vn 0.7139 -0.6857 0.1420
vn 0.7139 0.6857 0.1420
vn 0.6725 -0.6857 0.2785
vn 0.6725 0.6857 0.2785
vn 0.6052 -0.6857 0.4044
vn 0.6052 0.6857 0.4044
vn 0.5147 -0.6857 0.5147
vn 0.5147 0.6857 0.5147
vn 0.4044 -0.6857 0.6052
vn 0.4044 0.6857 0.6052
vn 0.2785 -0.6857 0.6725
vn 0.2785 0.6857 0.6725
vn 0.1420 -0.6857 0.7139
vn 0.1420 0.6857 0.7139
vn 0.0000 -0.6857 0.7279
vn 0.0000 0.6857 0.7279
vn -0.1420 -0.6857 0.7139
vn -0.1420 0.6857 0.7139
vn -0.2785 -0.6857 0.6725
vn -0.2785 0.6857 0.6725
vn -0.4044 -0.6857 0.6052
vn -0.4044 0.6857 0.6052
vn -0.5147 -0.6857 0.5147
vn -0.5147 0.6857 0.5147
vn -0.6052 -0.6857 0.4044
vn -0.6052 0.6857 0.4044
vn -0.6725 -0.6857 0.2785
vn -0.6725 0.6857 0.2785
vn -0.7139 -0.6857 0.1420
vn -0.7139 0.6857 0.1420
vn -0.7279 -0.6857 0.0000
vn -0.7279 0.6857 0.0000
vn -0.7139 -0.6857 -0.1420
vn -0.7139 0.6857 -0.1420
vn -0.6725 -0.6857 -0.2785
vn -0.6725 0.6857 -0.2785
vn -0.6052 -0.6857 -0.4044
vn -0.6052 0.6857 -0.4044
vn -0.5147 -0.6857 -0.5147
vn -0.5147 0.6857 -0.5147
vn -0.4044 -0.6857 -0.6052
vn -0.4044 0.6857 -0.6052
vn -0.2785 -0.6857 -0.6725
vn -0.2785 0.6857 -0.6725
vn -0.1420 -0.6857 -0.7139
vn -0.1420 0.6857 -0.7139
s 1
f 2/1/1 3/2/2 1/3/3
f 4/4/4 5/5/5 3/2/2
f 6/6/6 7/7/7 5/5/5
f 8/8/8 9/9/9 7/7/7
f 10/10/10 11/11/11 9/12/9
f 12/13/12 13/14/13 11/11/11
f 14/15/14 15/16/15 13/14/13
f 16/17/16 17/18/17 15/16/15
f 18/19/18 19/20/19 17/18/17
f 20/21/20 21/22/21 19/20/19
f 22/23/22 23/24/23 21/22/21
f 24/25/24 25/26/25 23/24/23
f 26/27/26 27/28/27 25/26/25
f 28/29/28 29/30/29 27/31/27
f 30/32/30 31/33/31 29/30/29
f 32/34/32 33/35/33 31/33/31
f 34/36/34 35/37/35 33/35/33
f 36/38/36 37/39/37 35/37/35
f 38/40/38 39/41/39 37/39/37
f 40/42/40 41/43/41 39/44/39
f 42/45/42 43/46/43 41/43/41
f 44/47/44 45/48/45 43/46/43
f 46/49/46 47/50/47 45/48/45
f 48/51/48 49/52/49 47/50/47
f 50/53/50 51/54/51 49/52/49
f 52/55/52 53/56/53 51/54/51
f 54/57/54 55/58/55 53/56/53
f 56/59/56 57/60/57 55/61/55
f 58/62/58 59/63/59 57/60/57
f 60/64/60 61/65/61 59/63/59
f 54/66/54 38/67/38 22/68/22
f 62/69/62 63/70/63 61/65/61
f 64/71/64 1/3/3 63/70/63
f 15/72/15 31/73/31 47/74/47
f 2/1/1 4/4/4 3/2/2
f 4/4/4 6/6/6 5/5/5
f 6/6/6 8/8/8 7/7/7
f 8/8/8 10/10/10 9/9/9
f 10/10/10 12/13/12 11/11/11
f 12/13/12 14/15/14 13/14/13
f 14/15/14 16/17/16 15/16/15
f 16/17/16 18/19/18 17/18/17
f 18/19/18 20/21/20 19/20/19
f 20/21/20 22/23/22 21/22/21
f 22/23/22 24/25/24 23/24/23
f 24/25/24 26/27/26 25/26/25
f 26/27/26 28/75/28 27/28/27
f 28/29/28 30/32/30 29/30/29
f 30/32/30 32/34/32 31/33/31
f 32/34/32 34/36/34 33/35/33
f 34/36/34 36/38/36 35/37/35
f 36/38/36 38/40/38 37/39/37
f 38/40/38 40/76/40 39/41/39
f 40/42/40 42/45/42 41/43/41
f 42/45/42 44/47/44 43/46/43
f 44/47/44 46/49/46 45/48/45
f 46/49/46 48/51/48 47/50/47
f 48/51/48 50/53/50 49/52/49
f 50/53/50 52/55/52 51/54/51
f 52/55/52 54/57/54 53/56/53
f 54/57/54 56/77/56 55/58/55
f 56/59/56 58/62/58 57/60/57
f 58/62/58 60/64/60 59/63/59
f 60/64/60 62/69/62 61/65/61
f 6/78/6 4/79/4 2/80/1
f 2/80/1 64/81/64 6/78/6
f 64/81/64 62/82/62 6/78/6
f 62/82/62 60/83/60 58/84/58
f 58/84/58 56/85/56 54/66/54
f 54/66/54 52/86/52 50/87/50
f 50/87/50 48/88/48 54/66/54
f 48/88/48 46/89/46 54/66/54
f 46/89/46 44/90/44 38/67/38
f 44/90/44 42/91/42 38/67/38
f 42/91/42 40/92/40 38/67/38
f 38/67/38 36/93/36 34/94/34
f 34/94/34 32/95/32 30/96/30
f 30/96/30 28/97/28 26/98/26
f 26/98/26 24/99/24 22/68/22
f 22/68/22 20/100/20 18/101/18
f 18/101/18 16/102/16 22/68/22
f 16/102/16 14/103/14 22/68/22
f 14/103/14 12/104/12 10/105/10
f 10/105/10 8/106/8 6/78/6
f 62/82/62 58/84/58 6/78/6
f 58/84/58 54/66/54 6/78/6
f 38/67/38 34/94/34 22/68/22
f 34/94/34 30/96/30 22/68/22
f 30/96/30 26/98/26 22/68/22
f 14/103/14 10/105/10 22/68/22
f 10/105/10 6/78/6 22/68/22
f 54/66/54 46/89/46 38/67/38
f 6/78/6 54/66/54 22/68/22
f 62/69/62 64/71/64 63/70/63
f 64/71/64 2/1/1 1/3/3
f 63/107/63 1/108/3 3/109/2
f 3/109/2 5/110/5 7/111/7
f 7/111/7 9/112/9 11/113/11
f 11/113/11 13/114/13 7/111/7
f 13/114/13 15/72/15 7/111/7
f 15/72/15 17/115/17 19/116/19
f 19/116/19 21/117/21 15/72/15
f 21/117/21 23/118/23 15/72/15
f 23/118/23 25/119/25 31/73/31
f 25/119/25 27/120/27 31/73/31
f 27/120/27 29/121/29 31/73/31
f 31/73/31 33/122/33 35/123/35
f 35/123/35 37/124/37 39/125/39
f 39/125/39 41/126/41 43/127/43
f 43/127/43 45/128/45 47/74/47
f 47/74/47 49/129/49 51/130/51
f 51/130/51 53/131/53 55/132/55
f 55/132/55 57/133/57 63/107/63
f 57/133/57 59/134/59 63/107/63
f 59/134/59 61/135/61 63/107/63
f 63/107/63 3/109/2 7/111/7
f 31/73/31 35/123/35 47/74/47
f 35/123/35 39/125/39 47/74/47
f 39/125/39 43/127/43 47/74/47
f 47/74/47 51/130/51 63/107/63
f 51/130/51 55/132/55 63/107/63
f 63/107/63 7/111/7 15/72/15
f 15/72/15 23/118/23 31/73/31
f 63/107/63 15/72/15 47/74/47
o Cube
v -1.000000 -1.000000 1.000000
v -1.000000 1.000000 1.000000
v -1.000000 -1.000000 -1.000000
v -1.000000 1.000000 -1.000000
v 1.000000 -1.000000 1.000000
v 1.000000 1.000000 1.000000
v 1.000000 -1.000000 -1.000000
v 1.000000 1.000000 -1.000000
vt 0.333333 0.333333
vt 0.666667 0.000000
vt 0.666667 0.333333
vt 0.000000 0.666667
vt 0.333333 0.333333
vt 0.333333 0.666667
vt 0.000000 0.333333
vt 0.333333 0.000000
vt 0.333333 0.333333
vt 0.666667 0.666667
vt 0.333333 0.666667
vt 0.666667 0.333333
vt 1.000000 0.000000
vt 1.000000 0.333333
vt 0.333333 1.000000
vt 0.000000 0.666667
vt 0.333333 0.666667
vt 0.333333 0.000000
vt 0.000000 0.000000
vt 0.666667 0.333333
vt 0.666667 0.000000
vt 0.000000 1.000000
vn -1.0000 0.0000 0.0000
vn 0.0000 0.0000 -1.0000
vn 1.0000 0.0000 0.0000
vn 0.0000 0.0000 1.0000
vn 0.0000 -1.0000 0.0000
vn 0.0000 1.0000 0.0000
s off
f 66/136/65 67/137/65 65/138/65
f 68/139/66 71/140/66 67/141/66
f 72/142/67 69/143/67 71/140/67
f 70/144/68 65/145/68 69/146/68
f 71/147/69 65/148/69 67/149/69
f 68/150/70 70/151/70 72/152/70
f 66/136/65 68/153/65 67/137/65
f 68/139/66 72/142/66 71/140/66
f 72/142/67 70/154/67 69/143/67
f 70/144/68 66/155/68 65/145/68
f 71/147/69 69/156/69 65/148/69
f 68/150/70 66/157/70 70/151/70
o Icosphere
v 0.000000 0.048979 -0.000000
v 0.688166 0.574685 0.499976
v -0.262851 0.574684 0.808986
v -0.850619 0.574688 -0.000000
v -0.262851 0.574684 -0.808986
v 0.688166 0.574685 -0.499976
v 0.262851 1.425316 0.808986
v -0.688166 1.425315 0.499976
v -0.688166 1.425315 -0.499976
v 0.262851 1.425316 -0.808986
v 0.850619 1.425312 -0.000000
v 0.000000 1.951021 -0.000000
v -0.154499 0.191009 0.475506
v 0.404491 0.191010 0.293876
v 0.249994 0.500012 0.769387
v 0.808984 0.500014 -0.000000
v 0.404491 0.191010 -0.293876
v -0.499980 0.191012 -0.000000
v -0.654483 0.500014 0.475508
v -0.154499 0.191009 -0.475506
v -0.654483 0.500014 -0.475508
v 0.249994 0.500012 -0.769387
v 0.904476 1.000000 0.293878
v 0.904476 1.000000 -0.293878
v 0.000000 1.000000 0.951021
v 0.558997 1.000000 0.769392
v -0.904476 1.000000 0.293878
v -0.558997 1.000000 0.769392
v -0.558997 1.000000 -0.769392
v -0.904476 1.000000 -0.293878
v 0.558997 1.000000 -0.769392
v 0.000000 1.000000 -0.951021
v 0.654483 1.499986 0.475508
v -0.249994 1.499988 0.769387
v -0.808984 1.499986 -0.000000
v -0.249994 1.499988 -0.769387
v 0.654483 1.499986 -0.475508
v 0.154499 1.808990 0.475506
v 0.499980 1.808988 -0.000000
v -0.404491 1.808990 0.293876
v -0.404491 1.808990 -0.293876
v 0.154499 1.808990 -0.475506
vt 0.413586 0.692800
vt 0.468358 0.856213
vt 0.337301 0.823110
vt 0.534961 0.993741
vt 0.614544 0.856214
vt 0.331147 0.625762
vt 0.458402 0.536898
vt 0.543202 0.679326
vt 0.645179 1.000000
vt 0.108243 0.442899
vt 0.069096 0.536898
vt 0.000000 0.370986
vt 0.326196 0.268450
vt 0.223598 0.370988
vt 0.223598 0.165910
vt 0.751450 0.153584
vt 0.881332 0.146536
vt 0.801977 0.319609
vt 0.443639 0.442900
vt 0.335396 0.370991
vt 0.430883 0.268450
vt 0.797299 0.997247
vt 0.714222 0.863746
vt 0.860317 0.856507
vt 0.095488 0.268448
vt 0.335396 0.102540
vt 0.671855 0.280037
vt 0.558994 0.370988
vt 0.910844 0.690482
vt 0.780962 0.683434
vt 0.862040 0.536898
vt 0.000000 0.692800
vt 0.057705 0.536898
vt 0.119092 0.679326
vt 0.127332 0.993741
vt 0.047749 0.856214
vt 0.193936 0.856213
vt 0.443639 0.093999
vt 0.404492 0.000000
vt 0.542682 0.000000
vt 0.661592 0.268448
vt 0.558994 0.165910
vt 0.670791 0.102538
vt 0.331147 0.625762
vt 0.324993 0.823111
vt 0.248707 0.692800
vt 0.253651 1.000000
vt 0.203892 0.536898
vt 0.991503 0.619404
vt 0.715946 0.544138
vt 0.662294 0.702798
vt 0.335396 0.165912
vt 0.738596 0.460349
vt 0.864995 0.460349
vt 0.017115 1.000000
vt 0.207286 0.000000
vt 0.108244 0.093998
vt 0.000001 0.165907
vt 0.990439 0.816935
vt 0.670791 0.082506
vt 0.948072 0.326848
vt 1.000000 0.165900
vt 0.923698 0.997247
vt 0.670791 0.434358
vt 0.542681 0.536898
vt 0.604588 0.536898
vt 0.662294 0.692800
vt 0.800254 0.000000
vt 0.946348 0.007240
vt 0.335396 0.434360
vt 0.207286 0.536898
vt 0.408643 1.000000
vn 0.1024 -0.9435 0.3151
vn 0.7002 -0.6617 0.2680
vn -0.2680 -0.9435 0.1947
vn -0.2680 -0.9435 -0.1947
vn 0.1024 -0.9435 -0.3151
vn 0.9050 -0.3304 0.2680
vn 0.0247 -0.3304 0.9435
vn -0.8897 -0.3304 0.3151
vn -0.5746 -0.3304 -0.7488
vn 0.5346 -0.3304 -0.7779
vn 0.8026 -0.1256 0.5831
vn -0.3066 -0.1256 0.9435
vn -0.9921 -0.1256 0.0000
vn -0.3066 -0.1256 -0.9435
vn 0.8026 -0.1256 -0.5831
vn 0.4089 0.6617 0.6284
vn -0.4713 0.6617 0.5831
vn -0.7002 0.6617 -0.2680
vn 0.0385 0.6617 -0.7488
vn 0.7240 0.6617 -0.1947
vn 0.2680 0.9435 -0.1947
vn 0.4911 0.7947 -0.3568
vn 0.4089 0.6617 -0.6284
vn -0.1024 0.9435 -0.3151
vn -0.1876 0.7947 -0.5773
vn -0.4713 0.6617 -0.5831
vn -0.3313 0.9435 0.0000
vn -0.6071 0.7947 0.0000
vn -0.7002 0.6617 0.2680
vn -0.1024 0.9435 0.3151
vn -0.1876 0.7947 0.5773
vn 0.0385 0.6617 0.7488
vn 0.2680 0.9435 0.1947
vn 0.4911 0.7947 0.3568
vn 0.7240 0.6617 0.1947
vn 0.8897 0.3304 -0.3151
vn 0.7947 0.1876 -0.5773
vn 0.5746 0.3304 -0.7488
vn -0.0247 0.3304 -0.9435
vn -0.3035 0.1876 -0.9342
vn -0.5346 0.3304 -0.7779
vn -0.9050 0.3304 -0.2680
vn -0.9822 0.1876 0.0000
vn -0.9050 0.3304 0.2680
vn -0.5346 0.3304 0.7779
vn -0.3035 0.1876 0.9342
vn -0.0247 0.3304 0.9435
vn 0.5746 0.3304 0.7488
vn 0.7947 0.1876 0.5773
vn 0.8897 0.3304 0.3151
vn 0.3066 0.1256 -0.9435
vn 0.3035 -0.1876 -0.9342
vn 0.0247 -0.3304 -0.9435
vn -0.8026 0.1256 -0.5831
vn -0.7947 -0.1876 -0.5773
vn -0.8897 -0.3304 -0.3151
vn -0.8026 0.1256 0.5831
vn -0.7947 -0.1876 0.5773
vn -0.5746 -0.3304 0.7488
vn 0.3066 0.1256 0.9435
vn 0.3035 -0.1876 0.9342
vn 0.5346 -0.3304 0.7779
vn 0.9921 0.1256 0.0000
vn 0.9822 -0.1876 0.0000
vn 0.9050 -0.3304 -0.2680
vn 0.4713 -0.6617 -0.5831
vn 0.1876 -0.7947 -0.5773
vn -0.0385 -0.6617 -0.7488
vn -0.4089 -0.6617 -0.6284
vn -0.4911 -0.7947 -0.3568
vn -0.7240 -0.6617 -0.1947
vn -0.7240 -0.6617 0.1947
vn -0.4911 -0.7947 0.3568
vn -0.4089 -0.6617 0.6284
vn 0.7002 -0.6617 -0.2680
vn 0.6071 -0.7947 0.0000
vn 0.3313 -0.9435 0.0000
vn -0.0385 -0.6617 0.7488
vn 0.1876 -0.7947 0.5773
vn 0.4713 -0.6617 0.5831
s off
f 73/158/71 86/159/71 85/160/71
f 74/161/72 86/159/72 88/162/72
f 73/158/73 85/160/73 90/163/73
f 73/158/74 90/163/74 92/164/74
f 73/158/75 92/164/75 89/165/75
f 74/161/76 88/162/76 95/166/76
f 75/167/77 87/168/77 97/169/77
f 76/170/78 91/171/78 99/172/78
f 77/173/79 93/174/79 101/175/79
f 78/176/80 94/177/80 103/178/80
f 74/179/81 95/180/81 98/181/81
f 75/167/82 97/169/82 100/182/82
f 76/170/83 99/172/83 102/183/83
f 77/173/84 101/175/84 104/184/84
f 78/176/85 103/178/85 96/185/85
f 79/186/86 105/187/86 110/188/86
f 80/189/87 106/190/87 112/191/87
f 81/192/88 107/193/88 113/194/88
f 82/195/89 108/196/89 114/197/89
f 83/198/90 109/199/90 111/200/90
f 111/201/91 114/202/91 84/203/91
f 111/200/92 109/199/92 114/197/92
f 109/199/93 82/195/93 114/197/93
f 114/202/94 113/194/94 84/203/94
f 114/202/95 108/204/95 113/194/95
f 108/204/96 81/192/96 113/194/96
f 113/194/97 112/191/97 84/203/97
f 113/194/98 107/193/98 112/191/98
f 107/193/99 80/189/99 112/191/99
f 112/191/100 110/205/100 84/203/100
f 112/191/101 106/190/101 110/205/101
f 106/206/102 79/186/102 110/188/102
f 110/205/103 111/201/103 84/203/103
f 110/188/104 105/187/104 111/207/104
f 105/187/105 83/208/105 111/207/105
f 96/185/106 109/199/106 83/198/106
f 96/185/107 103/178/107 109/199/107
f 103/178/108 82/195/108 109/199/108
f 104/209/109 108/196/109 82/195/109
f 104/184/110 101/175/110 108/210/110
f 101/175/111 81/211/111 108/210/111
f 102/212/112 107/193/112 81/192/112
f 102/183/113 99/172/113 107/213/113
f 99/172/114 80/214/114 107/213/114
f 100/182/115 106/215/115 80/214/115
f 100/182/116 97/169/116 106/215/116
f 97/216/117 79/186/117 106/206/117
f 98/181/118 105/187/118 79/186/118
f 98/181/119 95/180/119 105/187/119
f 95/180/120 83/208/120 105/187/120
f 103/178/121 104/209/121 82/195/121
f 103/178/122 94/177/122 104/209/122
f 94/217/123 77/173/123 104/184/123
f 101/175/124 102/218/124 81/211/124
f 101/175/125 93/174/125 102/218/125
f 93/174/126 76/219/126 102/218/126
f 99/172/127 100/182/127 80/214/127
f 99/172/128 91/171/128 100/182/128
f 91/171/129 75/167/129 100/182/129
f 97/216/130 98/181/130 79/186/130
f 97/216/131 87/220/131 98/181/131
f 87/220/132 74/179/132 98/181/132
f 95/221/133 96/185/133 83/198/133
f 95/221/134 88/222/134 96/185/134
f 88/222/135 78/176/135 96/185/135
f 89/165/136 94/223/136 78/224/136
f 89/165/137 92/164/137 94/223/137
f 92/225/138 77/173/138 94/217/138
f 92/225/139 93/174/139 77/173/139
f 92/225/140 90/226/140 93/174/140
f 90/226/141 76/219/141 93/174/141
f 90/227/142 91/171/142 76/170/142
f 90/227/143 85/228/143 91/171/143
f 85/228/144 75/167/144 91/171/144
f 88/162/145 89/165/145 78/224/145
f 88/162/146 86/159/146 89/165/146
f 86/159/147 73/158/147 89/165/147
f 85/228/148 87/168/148 75/167/148
f 85/160/149 86/159/149 87/229/149
f 86/159/150 74/161/150 87/229/150
o Plane
v -12.500000 0.000000 12.500000
v 12.500000 0.000000 12.500000
v -12.500000 0.000000 -12.500000
v 12.500000 0.000000 -12.500000
vt 0.000000 0.000000
vt 1.000000 1.000000
vt 0.000000 1.000000
vt 1.000000 0.000000
vn 0.0000 1.0000 0.0000
s off
f 116/230/151 117/231/151 115/232/151
f 116/230/151 118/233/151 117/231/151
