ply
format ascii 1.0
comment Created by Blender 2.80 (sub 75) - www.blender.org, source file: ''
element vertex 269
property float x
property float y
property float z
property float nx
property float ny
property float nz
property float s
property float t
property uchar red
property uchar green
property uchar blue
property uchar alpha
element face 162
property list uchar uint vertex_indices
end_header
0.250000 0.000034 0.601756 0.000000 0.000000 1.000000 0.218199 0.169943 255 255 255 255
0.419475 0.000034 0.601756 0.000000 0.000000 1.000000 0.200893 0.167777 255 255 255 255
0.419395 0.875034 0.601756 0.000000 0.000000 1.000000 0.189592 0.079884 255 255 255 255
0.250000 0.875034 0.601756 -0.000000 0.000000 1.000000 0.207788 0.077764 255 255 255 255
-0.500000 0.000034 0.601756 0.000000 0.000000 1.000000 0.295484 0.167353 255 255 255 255
-0.500000 0.875034 0.601756 -0.000000 0.000000 1.000000 0.292331 0.071033 255 255 255 255
0.500000 0.000034 -0.398244 0.000000 0.000000 -1.000000 0.014000 0.624380 255 255 255 255
0.250000 0.000034 -0.398244 0.000000 0.000000 -1.000000 0.016391 0.593541 255 255 255 255
0.250000 0.875034 -0.398244 0.000000 0.000000 -1.000000 0.117066 0.604893 255 255 255 255
0.500000 0.875034 -0.398244 -0.000000 -0.000000 -1.000000 0.115209 0.632059 255 255 255 255
0.250000 0.000034 -0.398244 -0.000000 -1.000000 -0.000000 0.214332 0.276719 255 255 255 255
0.500000 0.000034 -0.398244 -0.000000 -1.000000 -0.000000 0.186856 0.275688 255 255 255 255
0.500000 0.000034 0.526756 -0.000000 -1.000000 -0.000000 0.190668 0.174028 255 255 255 255
0.419475 0.000034 0.601756 0.000000 -1.000000 0.000000 0.200893 0.167777 255 255 255 255
0.250000 0.000034 0.601756 0.000000 -1.000000 0.000000 0.218199 0.169943 255 255 255 255
0.250000 1.000035 0.601756 -1.000000 0.000000 0.000000 0.414729 0.402772 255 255 255 255
0.250000 1.000035 0.488429 -1.000000 0.000000 0.000000 0.419055 0.425011 255 255 255 255
0.250000 0.875034 0.488429 -1.000000 0.000000 0.000000 0.400176 0.430528 255 255 255 255
0.250000 0.875034 0.601756 -1.000000 0.000000 0.000000 0.386060 0.410088 255 255 255 255
0.419475 0.000034 0.601756 0.681557 0.000000 0.731765 0.200893 0.167777 255 255 255 255
0.500000 0.000034 0.526756 0.681557 0.000000 0.731765 0.190668 0.174028 255 255 255 255
0.500000 0.875034 0.526756 0.681557 0.000000 0.731765 0.176696 0.081672 255 255 255 255
0.419475 0.000034 0.601756 0.681194 0.000062 0.732103 0.200893 0.167777 255 255 255 255
0.500000 0.875034 0.526756 0.681194 0.000062 0.732103 0.176696 0.081672 255 255 255 255
0.419395 0.875034 0.601756 0.681194 0.000062 0.732103 0.189592 0.079884 255 255 255 255
0.500000 0.000034 0.526756 1.000000 0.000000 -0.000000 0.019417 0.737886 255 255 255 255
0.500000 0.000034 -0.398244 1.000000 0.000000 -0.000000 0.014000 0.624380 255 255 255 255
0.500000 0.875034 -0.398244 1.000000 0.000000 -0.000000 0.115209 0.632059 255 255 255 255
0.500000 0.875034 0.526756 1.000000 0.000000 0.000000 0.126787 0.732762 255 255 255 255
0.250000 0.875034 0.601756 0.000000 1.000000 0.000000 0.386060 0.410088 255 255 255 255
0.250000 0.875034 0.488429 0.000000 1.000000 0.000000 0.400176 0.430528 255 255 255 255
-0.500000 0.875034 0.488429 0.000000 1.000000 0.000000 0.385409 0.539648 255 255 255 255
-0.500000 0.875034 0.601756 -0.000000 1.000000 0.000000 0.360272 0.543218 255 255 255 255
-0.500000 0.000034 -0.398244 0.000000 0.000000 -1.000000 0.035440 0.493250 255 255 255 255
-0.500000 0.875034 -0.398244 0.000000 0.000000 -1.000000 0.135302 0.528890 255 255 255 255
-0.500000 0.000034 0.601756 0.000000 -1.000000 0.000000 0.295484 0.167353 255 255 255 255
-0.500000 0.000034 -0.398244 0.000000 -1.000000 0.000000 0.299020 0.277059 255 255 255 255
0.250000 0.525034 0.526756 -0.382676 0.923882 0.000000 0.089978 0.829103 255 255 255 255
0.143934 0.481101 0.526756 -0.382676 0.923882 0.000000 0.089978 0.792201 255 255 255 255
0.143934 0.481101 0.676756 -0.382676 0.923882 0.000000 0.121347 0.803728 255 255 255 255
0.250000 0.525034 0.676756 -0.382676 0.923882 0.000000 0.120801 0.815341 255 255 255 255
0.143934 0.481101 0.526756 -0.923879 0.382684 0.000000 0.089978 0.792201 255 255 255 255
0.100000 0.375035 0.526756 -0.923879 0.382684 0.000000 0.116501 0.766059 255 255 255 255
0.100000 0.375035 0.676756 -0.923879 0.382684 0.000000 0.130341 0.796682 255 255 255 255
0.143934 0.481101 0.676756 -0.923879 0.382684 0.000000 0.121347 0.803728 255 255 255 255
0.100000 0.375035 0.526756 -0.923881 -0.382681 -0.000000 0.116501 0.766059 255 255 255 255
0.143934 0.268968 0.526756 -0.923881 -0.382681 -0.000000 0.153628 0.766357 255 255 255 255
0.143934 0.268968 0.676756 -0.923881 -0.382681 -0.000000 0.141738 0.797619 255 255 255 255
0.100000 0.375035 0.676756 -0.923881 -0.382681 0.000000 0.130341 0.796682 255 255 255 255
0.143934 0.268968 0.526756 -0.382684 -0.923880 -0.000000 0.153628 0.766357 255 255 255 255
0.250000 0.225034 0.526756 -0.382684 -0.923880 -0.000000 0.179386 0.793224 255 255 255 255
0.250000 0.225034 0.676756 -0.382684 -0.923880 -0.000000 0.148563 0.806986 255 255 255 255
0.143934 0.268968 0.676756 -0.382684 -0.923880 0.000000 0.141738 0.797619 255 255 255 255
0.250000 0.225034 0.526756 0.382684 -0.923879 0.000000 0.179386 0.793224 255 255 255 255
0.356066 0.268968 0.526756 0.382684 -0.923879 0.000000 0.179386 0.830126 255 255 255 255
0.356066 0.268968 0.676756 0.382684 -0.923879 0.000000 0.148018 0.818599 255 255 255 255
0.250000 0.225034 0.676756 0.382684 -0.923879 0.000000 0.148563 0.806986 255 255 255 255
0.356066 0.268968 0.526756 0.923881 -0.382681 0.000000 0.179386 0.830126 255 255 255 255
0.400000 0.375035 0.526756 0.923881 -0.382681 0.000000 0.152864 0.856268 255 255 255 255
0.400000 0.375035 0.676756 0.923881 -0.382681 0.000000 0.139023 0.825645 255 255 255 255
0.356066 0.268968 0.676756 0.923881 -0.382681 0.000000 0.148018 0.818599 255 255 255 255
0.250000 0.525034 0.676756 0.000000 0.000000 1.000000 0.120801 0.815341 255 255 255 255
0.143934 0.481101 0.676756 0.000000 0.000000 1.000000 0.121347 0.803728 255 255 255 255
0.100000 0.375035 0.676756 0.000000 0.000000 1.000000 0.130341 0.796682 255 255 255 255
0.143934 0.268968 0.676756 0.000000 0.000000 1.000000 0.141738 0.797619 255 255 255 255
0.250000 0.225034 0.676756 0.000000 0.000000 1.000000 0.148563 0.806986 255 255 255 255
0.356066 0.268968 0.676756 0.000000 0.000000 1.000000 0.148018 0.818599 255 255 255 255
0.400000 0.375035 0.676756 0.000000 0.000000 1.000000 0.139023 0.825645 255 255 255 255
0.356066 0.481101 0.676756 0.000000 0.000000 1.000000 0.127626 0.824708 255 255 255 255
0.400000 0.375035 0.526756 0.923879 0.382684 0.000000 0.152864 0.856268 255 255 255 255
0.356066 0.481101 0.526756 0.923879 0.382684 0.000000 0.115736 0.855970 255 255 255 255
0.356066 0.481101 0.676756 0.923879 0.382684 0.000000 0.127626 0.824708 255 255 255 255
0.400000 0.375035 0.676756 0.923879 0.382684 0.000000 0.139023 0.825645 255 255 255 255
0.356066 0.481101 0.526756 0.382676 0.923882 0.000000 0.115736 0.855970 255 255 255 255
0.250000 0.525034 0.526756 0.382676 0.923882 0.000000 0.089978 0.829103 255 255 255 255
0.250000 0.525034 0.676756 0.382676 0.923882 0.000000 0.120801 0.815341 255 255 255 255
0.356066 0.481101 0.676756 0.382676 0.923882 0.000000 0.127626 0.824708 255 255 255 255
-0.500000 0.262141 0.449699 -0.000000 -0.000000 -1.000000 0.427170 0.868096 255 255 255 255
-0.500000 0.375035 0.449699 -0.000000 -0.000000 -1.000000 0.418626 0.893337 255 255 255 255
-0.003014 0.375035 0.449699 -0.000000 -0.000000 -1.000000 0.327624 0.858562 255 255 255 255
-0.003014 0.262141 0.449699 -0.000000 0.000000 -1.000000 0.330754 0.841339 255 255 255 255
-0.003014 0.262141 0.449699 1.000000 0.000000 0.000000 0.330754 0.841339 255 255 255 255
-0.003014 0.375035 0.449699 1.000000 0.000000 0.000000 0.327624 0.858562 255 255 255 255
-0.003014 0.375035 0.649698 1.000000 0.000000 0.000000 0.282401 0.876743 255 255 255 255
-0.003014 0.262141 0.649698 1.000000 -0.000000 0.000000 0.278561 0.833266 255 255 255 255
-0.500000 0.125034 0.449699 -0.000000 -1.000000 -0.000000 0.434827 0.831334 255 255 255 255
-0.003014 0.125034 0.449699 -0.000000 -1.000000 -0.000000 0.338644 0.819108 255 255 255 255
-0.003014 0.125034 0.649698 -0.000000 -1.000000 -0.000000 0.293330 0.788240 255 255 255 255
-0.500000 0.125034 0.649698 0.000000 -1.000000 -0.000000 0.434827 0.769886 255 255 255 255
-0.003014 0.262141 0.649698 -0.000000 0.000000 1.000000 0.638007 0.918235 255 255 255 255
-0.003014 0.375035 0.649698 -0.000000 0.000000 1.000000 0.627754 0.906682 255 255 255 255
-0.046459 0.364001 0.649698 -0.000000 0.000000 1.000000 0.632501 0.901082 255 255 255 255
-0.046459 0.261072 0.649698 -0.000000 0.000000 1.000000 0.642028 0.915336 255 255 255 255
-0.500000 0.125034 0.649698 0.000000 0.000000 1.000000 0.675956 0.981798 255 255 255 255
-0.003014 0.125034 0.649698 0.000000 0.000000 1.000000 0.630467 0.929916 255 255 255 255
-0.046459 0.136068 0.649698 0.000000 0.000000 1.000000 0.636061 0.933766 255 255 255 255
-0.500000 0.136068 0.649698 -0.000000 0.000000 1.000000 0.676863 0.981007 255 255 255 255
-0.046459 0.261072 0.649698 -1.000000 0.000000 0.000000 0.642028 0.915336 255 255 255 255
-0.046459 0.364001 0.649698 -1.000000 0.000000 0.000000 0.632501 0.901082 255 255 255 255
-0.046459 0.364001 0.607887 -1.000000 0.000000 0.000000 0.639620 0.900419 255 255 255 255
-0.046459 0.261072 0.607887 -1.000000 0.000000 0.000000 0.648906 0.914455 255 255 255 255
-0.500000 0.136068 0.649698 0.000000 1.000000 -0.000000 0.676863 0.981007 255 255 255 255
-0.046459 0.136068 0.649698 0.000000 1.000000 -0.000000 0.636061 0.933766 255 255 255 255
-0.046459 0.136068 0.607887 0.000000 1.000000 -0.000000 0.642667 0.932808 255 255 255 255
-0.500000 0.136068 0.607887 0.000000 1.000000 -0.000000 0.680229 0.978118 255 255 255 255
-0.046459 0.136068 0.649698 -1.000000 0.000000 0.000000 0.636061 0.933766 255 255 255 255
-0.046459 0.238997 0.649698 -1.000000 0.000000 0.000000 0.641698 0.918034 255 255 255 255
-0.046459 0.238997 0.607887 -1.000000 0.000000 0.000000 0.649462 0.918884 255 255 255 255
-0.046459 0.136068 0.607887 -1.000000 0.000000 0.000000 0.642667 0.932808 255 255 255 255
-0.500000 0.238997 0.607887 -0.000000 -1.000000 -0.000000 0.688823 0.971213 255 255 255 255
-0.046459 0.238997 0.607887 -0.000000 -1.000000 -0.000000 0.649462 0.918884 255 255 255 255
-0.046459 0.238997 0.648869 -0.000000 -1.000000 -0.000000 0.656165 0.917852 255 255 255 255
-0.500000 0.238997 0.648869 0.000000 -1.000000 -0.000000 0.692523 0.968494 255 255 255 255
-0.003014 0.237928 0.649698 0.000000 0.000000 1.000000 0.636732 0.916806 255 255 255 255
-0.046459 0.238997 0.649698 0.000000 0.000000 1.000000 0.641698 0.918034 255 255 255 255
-0.003014 0.262141 0.649698 -0.000000 0.000000 1.000000 0.637358 0.914186 255 255 255 255
-0.003014 0.125034 0.449699 1.000000 0.000000 0.000000 0.338644 0.819108 255 255 255 255
-0.003014 0.237928 0.449699 1.000000 0.000000 0.000000 0.331836 0.836352 255 255 255 255
-0.003014 0.237928 0.649698 1.000000 0.000000 0.000000 0.279798 0.826367 255 255 255 255
-0.003014 0.125034 0.649698 1.000000 -0.000000 0.000000 0.293330 0.788240 255 255 255 255
-0.500000 0.125034 0.449699 -0.000000 -0.000000 -1.000000 0.434827 0.831334 255 255 255 255
-0.500000 0.237928 0.449699 -0.000000 -0.000000 -1.000000 0.428542 0.863209 255 255 255 255
-0.003014 0.237928 0.449699 -0.000000 -0.000000 -1.000000 0.331836 0.836352 255 255 255 255
-0.003014 0.125034 0.449699 -0.000000 0.000000 -1.000000 0.338644 0.819108 255 255 255 255
-0.046459 0.238997 0.607887 1.000000 0.000000 0.000000 0.649462 0.918884 255 255 255 255
-0.046459 0.261072 0.607887 1.000000 0.000000 0.000000 0.648906 0.914455 255 255 255 255
-0.046459 0.261072 0.648869 1.000000 0.000000 0.000000 0.656142 0.915137 255 255 255 255
-0.046459 0.238997 0.648869 1.000000 -0.000000 0.000000 0.656165 0.917852 255 255 255 255
-0.500000 0.375035 0.649698 0.000000 0.000000 1.000000 0.661518 0.836552 255 255 255 255
-0.500000 0.364001 0.649698 0.000000 0.000000 1.000000 0.662749 0.837141 255 255 255 255
-0.003014 0.375035 0.449699 -0.000000 1.000000 0.000000 0.327624 0.858562 255 255 255 255
-0.500000 0.375035 0.449699 -0.000000 1.000000 0.000000 0.418626 0.893337 255 255 255 255
-0.500000 0.375035 0.649698 -0.000000 1.000000 0.000000 0.393892 0.938203 255 255 255 255
-0.003014 0.375035 0.649698 0.000000 1.000000 0.000000 0.282401 0.876743 255 255 255 255
-0.046459 0.364001 0.649698 0.000000 -1.000000 0.000000 0.632501 0.901082 255 255 255 255
-0.500000 0.364001 0.649698 0.000000 -1.000000 0.000000 0.662749 0.837141 255 255 255 255
-0.500000 0.364001 0.607887 0.000000 -1.000000 0.000000 0.670031 0.840768 255 255 255 255
-0.046459 0.364001 0.607887 0.000000 -1.000000 0.000000 0.639620 0.900419 255 255 255 255
-0.046459 0.261072 0.607887 -0.000000 0.000000 1.000000 0.648906 0.914455 255 255 255 255
-0.046459 0.364001 0.607887 -0.000000 0.000000 1.000000 0.639620 0.900419 255 255 255 255
-0.500000 0.364001 0.607887 -0.000000 0.000000 1.000000 0.670031 0.840768 255 255 255 255
-0.500000 0.261072 0.607887 -0.000000 0.000000 1.000000 0.686982 0.850520 255 255 255 255
-0.046459 0.136068 0.607887 -0.000000 0.000000 1.000000 0.642667 0.932808 255 255 255 255
-0.046459 0.238997 0.607887 -0.000000 0.000000 1.000000 0.649462 0.918884 255 255 255 255
-0.500000 0.238997 0.607887 -0.000000 0.000000 1.000000 0.688823 0.971213 255 255 255 255
-0.500000 0.136068 0.607887 -0.000000 0.000000 1.000000 0.680229 0.978118 255 255 255 255
-0.046459 0.238997 0.648869 -0.000000 0.000000 1.000000 0.822010 0.913052 255 255 255 255
-0.046459 0.261072 0.648869 -0.000000 0.000000 1.000000 0.822013 0.916285 255 255 255 255
-0.500000 0.261072 0.648869 -0.000000 0.000000 1.000000 0.755590 0.916350 255 255 255 255
-0.500000 0.238997 0.648869 -0.000000 0.000000 1.000000 0.755587 0.913116 255 255 255 255
-0.046459 0.261072 0.607887 -0.000000 1.000000 0.000000 0.648906 0.914455 255 255 255 255
-0.500000 0.261072 0.607887 -0.000000 1.000000 0.000000 0.686982 0.850520 255 255 255 255
-0.500000 0.261072 0.648869 -0.000000 1.000000 0.000000 0.692523 0.853807 255 255 255 255
-0.046459 0.261072 0.648869 0.000000 1.000000 0.000000 0.656142 0.915137 255 255 255 255
-0.500000 1.000035 -0.398244 0.000000 0.000000 -1.000000 0.147441 0.533222 255 255 255 255
0.250000 1.000035 -0.398244 -0.000000 -0.000000 -1.000000 0.129935 0.606645 255 255 255 255
0.419395 0.875034 0.601756 0.681194 0.000000 0.732103 0.385875 0.370642 255 255 255 255
0.500000 0.875034 0.526756 0.681194 0.000000 0.732103 0.387482 0.347600 255 255 255 255
0.500000 1.000035 0.526756 0.681194 0.000000 0.732103 0.413642 0.349425 255 255 255 255
0.419395 0.875034 0.601756 0.680986 0.000251 0.732296 0.385875 0.370642 255 255 255 255
0.500000 1.000035 0.526756 0.680986 0.000251 0.732296 0.413642 0.349425 255 255 255 255
0.419349 1.000035 0.601756 0.680986 0.000251 0.732296 0.412405 0.370771 255 255 255 255
-0.500000 0.875034 0.488429 0.000000 0.000000 1.000000 0.680425 0.316769 255 255 255 255
0.250000 0.875034 0.488429 0.000000 0.000000 1.000000 0.680424 0.045921 255 255 255 255
0.250000 1.000035 0.488429 0.000000 0.000000 1.000000 0.725566 0.045921 255 255 255 255
-0.500000 1.000035 0.488429 -0.000000 0.000000 1.000000 0.725566 0.316769 255 255 255 255
0.500000 1.000035 -0.398244 1.000000 0.000000 -0.000000 0.128449 0.631915 255 255 255 255
0.500000 1.000035 0.526756 1.000000 0.000000 0.000000 0.140789 0.731054 255 255 255 255
0.500000 1.000035 -0.398244 -0.000000 -0.000000 -1.000000 0.128449 0.631915 255 255 255 255
0.250000 0.875034 0.601756 0.000000 0.000000 1.000000 0.386060 0.410088 255 255 255 255
0.419395 0.875034 0.601756 0.000000 0.000000 1.000000 0.385875 0.370642 255 255 255 255
0.419349 1.000035 0.601756 0.000000 0.000000 1.000000 0.412405 0.370771 255 255 255 255
0.250000 1.000035 0.601756 -0.000000 0.000000 1.000000 0.414729 0.402772 255 255 255 255
-0.003014 0.750034 0.449699 -0.000000 1.000000 0.000000 0.327624 0.858562 255 255 255 255
-0.500000 0.750034 0.449699 -0.000000 1.000000 0.000000 0.418626 0.893337 255 255 255 255
-0.500000 0.750034 0.649698 -0.000000 1.000000 0.000000 0.393892 0.938203 255 255 255 255
-0.003014 0.750034 0.649698 0.000000 1.000000 0.000000 0.282401 0.876743 255 255 255 255
-0.003014 0.637141 0.649698 -0.000000 0.000000 1.000000 0.638007 0.918235 255 255 255 255
-0.003014 0.750034 0.649698 -0.000000 0.000000 1.000000 0.627754 0.906682 255 255 255 255
-0.046459 0.739001 0.649698 -0.000000 0.000000 1.000000 0.632501 0.901082 255 255 255 255
-0.046459 0.636072 0.649698 -0.000000 0.000000 1.000000 0.642028 0.915336 255 255 255 255
-0.046459 0.613997 0.648869 -0.000000 0.000000 1.000000 0.822010 0.913052 255 255 255 255
-0.046459 0.636072 0.648869 -0.000000 0.000000 1.000000 0.822013 0.916285 255 255 255 255
-0.500000 0.636072 0.648869 -0.000000 0.000000 1.000000 0.755590 0.916350 255 255 255 255
-0.500000 0.613997 0.648869 -0.000000 0.000000 1.000000 0.755587 0.913116 255 255 255 255
-0.046459 0.636072 0.607887 -0.000000 0.000000 1.000000 0.648906 0.914455 255 255 255 255
-0.046459 0.739001 0.607887 -0.000000 0.000000 1.000000 0.639620 0.900419 255 255 255 255
-0.500000 0.739001 0.607887 -0.000000 0.000000 1.000000 0.670031 0.840768 255 255 255 255
-0.500000 0.636072 0.607887 -0.000000 0.000000 1.000000 0.686982 0.850520 255 255 255 255
-0.046459 0.511068 0.607887 -0.000000 0.000000 1.000000 0.642667 0.932808 255 255 255 255
-0.046459 0.613997 0.607887 -0.000000 0.000000 1.000000 0.649462 0.918884 255 255 255 255
-0.500000 0.613997 0.607887 -0.000000 0.000000 1.000000 0.688823 0.971213 255 255 255 255
-0.500000 0.511068 0.607887 -0.000000 0.000000 1.000000 0.680229 0.978118 255 255 255 255
-0.046459 0.636072 0.607887 -0.000000 1.000000 0.000000 0.648906 0.914455 255 255 255 255
-0.500000 0.636072 0.607887 -0.000000 1.000000 0.000000 0.686982 0.850520 255 255 255 255
-0.500000 0.636072 0.648869 -0.000000 1.000000 0.000000 0.692523 0.853807 255 255 255 255
-0.046459 0.636072 0.648869 0.000000 1.000000 0.000000 0.656142 0.915137 255 255 255 255
-0.500000 0.612928 0.449699 -0.000000 -0.000000 -1.000000 0.428542 0.863209 255 255 255 255
-0.500000 0.637141 0.449699 -0.000000 -0.000000 -1.000000 0.427170 0.868096 255 255 255 255
-0.003014 0.637141 0.449699 -0.000000 -0.000000 -1.000000 0.330754 0.841339 255 255 255 255
-0.003014 0.612928 0.449699 -0.000000 0.000000 -1.000000 0.331836 0.836352 255 255 255 255
-0.500000 0.500034 0.449699 -0.000000 -0.000000 -1.000000 0.434827 0.831334 255 255 255 255
-0.003014 0.500034 0.449699 -0.000000 0.000000 -1.000000 0.338644 0.819108 255 255 255 255
-0.003014 0.612928 0.649698 -0.000000 0.000000 1.000000 0.636732 0.916806 255 255 255 255
-0.003014 0.637141 0.649698 -0.000000 0.000000 1.000000 0.637358 0.914186 255 255 255 255
-0.046459 0.636072 0.649698 -0.000000 0.000000 1.000000 0.642028 0.915336 255 255 255 255
-0.046459 0.613997 0.649698 -0.000000 0.000000 1.000000 0.641698 0.918034 255 255 255 255
-0.046459 0.511068 0.649698 -1.000000 0.000000 0.000000 0.636061 0.933766 255 255 255 255
-0.046459 0.613997 0.649698 -1.000000 0.000000 0.000000 0.641698 0.918034 255 255 255 255
-0.046459 0.613997 0.607887 -1.000000 0.000000 0.000000 0.649462 0.918884 255 255 255 255
-0.046459 0.511068 0.607887 -1.000000 0.000000 0.000000 0.642667 0.932808 255 255 255 255
-0.046459 0.636072 0.649698 -1.000000 0.000000 0.000000 0.642028 0.915336 255 255 255 255
-0.046459 0.636072 0.607887 -1.000000 0.000000 0.000000 0.648906 0.914455 255 255 255 255
-0.500000 0.511068 0.649698 0.000000 1.000000 -0.000000 0.676863 0.981007 255 255 255 255
-0.046459 0.511068 0.649698 0.000000 1.000000 -0.000000 0.636061 0.933766 255 255 255 255
-0.046459 0.511068 0.607887 0.000000 1.000000 -0.000000 0.642667 0.932808 255 255 255 255
-0.500000 0.511068 0.607887 0.000000 1.000000 -0.000000 0.680229 0.978118 255 255 255 255
-0.046459 0.739001 0.649698 -1.000000 0.000000 0.000000 0.632501 0.901082 255 255 255 255
-0.046459 0.739001 0.607887 -1.000000 0.000000 0.000000 0.639620 0.900419 255 255 255 255
-0.500000 0.613997 0.607887 -0.000000 -1.000000 -0.000000 0.688823 0.971213 255 255 255 255
-0.046459 0.613997 0.607887 -0.000000 -1.000000 -0.000000 0.649462 0.918884 255 255 255 255
-0.046459 0.613997 0.648869 -0.000000 -1.000000 -0.000000 0.656165 0.917852 255 255 255 255
-0.500000 0.613997 0.648869 0.000000 -1.000000 -0.000000 0.692523 0.968494 255 255 255 255
-0.500000 0.500034 0.649698 0.000000 0.000000 1.000000 0.675956 0.981798 255 255 255 255
-0.003014 0.500034 0.649698 0.000000 0.000000 1.000000 0.630467 0.929916 255 255 255 255
-0.046459 0.511068 0.649698 0.000000 0.000000 1.000000 0.636061 0.933766 255 255 255 255
-0.500000 0.511068 0.649698 -0.000000 0.000000 1.000000 0.676863 0.981007 255 255 255 255
-0.003014 0.612928 0.449699 1.000000 0.000000 0.000000 0.331836 0.836352 255 255 255 255
-0.003014 0.637141 0.449699 1.000000 0.000000 0.000000 0.330754 0.841339 255 255 255 255
-0.003014 0.637141 0.649698 1.000000 0.000000 0.000000 0.278561 0.833266 255 255 255 255
-0.003014 0.612928 0.649698 1.000000 -0.000000 0.000000 0.279798 0.826367 255 255 255 255
-0.003014 0.500034 0.449699 1.000000 0.000000 0.000000 0.338644 0.819108 255 255 255 255
-0.003014 0.500034 0.649698 1.000000 -0.000000 0.000000 0.293330 0.788240 255 255 255 255
-0.500000 0.500034 0.449699 -0.000000 -1.000000 -0.000000 0.434827 0.831334 255 255 255 255
-0.003014 0.500034 0.449699 -0.000000 -1.000000 -0.000000 0.338644 0.819108 255 255 255 255
-0.003014 0.500034 0.649698 -0.000000 -1.000000 -0.000000 0.293330 0.788240 255 255 255 255
-0.500000 0.500034 0.649698 0.000000 -1.000000 -0.000000 0.434827 0.769886 255 255 255 255
-0.003014 0.750034 0.649698 0.000000 0.000000 1.000000 0.627754 0.906682 255 255 255 255
-0.500000 0.750034 0.649698 0.000000 0.000000 1.000000 0.661518 0.836552 255 255 255 255
-0.500000 0.739001 0.649698 0.000000 0.000000 1.000000 0.662749 0.837141 255 255 255 255
-0.046459 0.739001 0.649698 0.000000 -0.000000 1.000000 0.632501 0.901082 255 255 255 255
-0.046459 0.739001 0.649698 0.000000 -1.000000 0.000000 0.632501 0.901082 255 255 255 255
-0.500000 0.739001 0.649698 0.000000 -1.000000 0.000000 0.662749 0.837141 255 255 255 255
-0.500000 0.739001 0.607887 0.000000 -1.000000 0.000000 0.670031 0.840768 255 255 255 255
-0.046459 0.739001 0.607887 0.000000 -1.000000 0.000000 0.639620 0.900419 255 255 255 255
-0.003014 0.750034 0.449699 1.000000 0.000000 0.000000 0.327624 0.858562 255 255 255 255
-0.003014 0.750034 0.649698 1.000000 0.000000 0.000000 0.282401 0.876743 255 255 255 255
-0.046459 0.613997 0.607887 1.000000 0.000000 0.000000 0.649462 0.918884 255 255 255 255
-0.046459 0.636072 0.607887 1.000000 0.000000 0.000000 0.648906 0.914455 255 255 255 255
-0.046459 0.636072 0.648869 1.000000 0.000000 0.000000 0.656142 0.915137 255 255 255 255
-0.046459 0.613997 0.648869 1.000000 -0.000000 0.000000 0.656165 0.917852 255 255 255 255
-0.500000 0.750034 0.449699 -0.000000 -0.000000 -1.000000 0.418626 0.893337 255 255 255 255
-0.003014 0.750034 0.449699 -0.000000 -0.000000 -1.000000 0.327624 0.858562 255 255 255 255
-0.500000 0.000034 -0.398244 -1.000000 -0.000000 -0.000000 0.060410 0.071442 255 255 255 255
-0.500000 0.000034 0.601756 -1.000000 -0.000000 -0.000000 0.059880 0.055027 255 255 255 255
-0.500000 0.875034 0.601756 -1.000000 -0.000000 -0.000000 0.015670 0.029988 255 255 255 255
-0.500000 0.875034 0.488429 -1.000000 0.000000 -0.000000 0.015670 0.029988 255 255 255 255
-0.500000 0.875034 -0.398244 -1.000000 0.000000 0.000000 0.015670 0.029988 255 255 255 255
-0.500000 1.000035 -0.398244 -1.000000 0.000000 0.000000 0.037730 0.109769 255 255 255 255
-0.500000 1.000035 0.488429 -1.000000 0.000000 0.000000 0.124230 0.077383 255 255 255 255
-0.500000 1.000035 -0.398244 0.000000 1.000000 0.000000 0.037730 0.109769 255 255 255 255
-0.500000 1.000035 0.488429 0.000000 1.000000 0.000000 0.124230 0.077383 255 255 255 255
0.250000 1.000035 -0.398244 0.000000 1.000000 0.000000 0.035111 0.120755 255 255 255 255
0.250000 1.000035 0.488429 0.000000 1.000000 -0.000000 0.124230 0.036858 255 255 255 255
0.250000 1.000035 0.601756 0.000000 1.000000 -0.000000 0.077722 0.090251 255 255 255 255
0.419349 1.000035 0.601756 0.000000 1.000000 -0.000000 0.077374 0.085463 255 255 255 255
0.250000 1.000035 0.488429 0.000000 1.000000 -0.000000 0.015670 0.029988 255 255 255 255
0.500000 1.000035 -0.398244 0.000000 1.000000 0.000000 0.034888 0.124536 255 255 255 255
0.500000 1.000035 0.526756 -0.000000 1.000000 0.000000 0.015670 0.029988 255 255 255 255
3 0 1 2
3 0 2 3
3 4 0 3
3 4 3 5
3 6 7 8
3 6 8 9
3 10 11 12
3 12 13 14
3 12 14 10
3 15 16 17
3 15 17 18
3 19 20 21
3 22 23 24
3 25 26 27
3 25 27 28
3 29 30 31
3 29 31 32
3 7 33 34
3 7 34 8
3 10 14 35
3 10 35 36
3 37 38 39
3 37 39 40
3 41 42 43
3 41 43 44
3 45 46 47
3 45 47 48
3 49 50 51
3 49 51 52
3 53 54 55
3 53 55 56
3 57 58 59
3 57 59 60
3 61 62 63
3 63 64 65
3 65 66 67
3 67 68 61
3 61 63 65
3 65 67 61
3 69 70 71
3 69 71 72
3 73 74 75
3 73 75 76
3 77 78 79
3 77 79 80
3 81 82 83
3 81 83 84
3 85 86 87
3 85 87 88
3 89 90 91
3 89 91 92
3 93 94 95
3 93 95 96
3 97 98 99
3 97 99 100
3 101 102 103
3 101 103 104
3 105 106 107
3 105 107 108
3 106 97 100
3 106 100 107
3 109 110 111
3 109 111 112
3 94 113 114
3 94 114 95
3 113 115 92
3 113 92 114
3 116 117 118
3 116 118 119
3 117 81 84
3 117 84 118
3 120 121 122
3 120 122 123
3 121 77 80
3 121 80 122
3 124 125 126
3 124 126 127
3 90 128 129
3 90 129 91
3 130 131 132
3 130 132 133
3 134 135 136
3 134 136 137
3 138 139 140
3 138 140 141
3 142 143 144
3 142 144 145
3 146 147 148
3 146 148 149
3 150 151 152
3 150 152 153
3 8 34 154
3 8 154 155
3 156 157 158
3 159 160 161
3 162 163 164
3 162 164 165
3 28 27 166
3 28 166 167
3 9 8 155
3 9 155 168
3 169 170 171
3 169 171 172
3 173 174 175
3 173 175 176
3 177 178 179
3 177 179 180
3 181 182 183
3 181 183 184
3 185 186 187
3 185 187 188
3 189 190 191
3 189 191 192
3 193 194 195
3 193 195 196
3 197 198 199
3 197 199 200
3 201 197 200
3 201 200 202
3 203 204 205
3 203 205 206
3 207 208 209
3 207 209 210
3 208 211 212
3 208 212 209
3 213 214 215
3 213 215 216
3 211 217 218
3 211 218 212
3 219 220 221
3 219 221 222
3 223 224 225
3 223 225 226
3 224 203 206
3 224 206 225
3 227 228 229
3 227 229 230
3 231 227 230
3 231 230 232
3 233 234 235
3 233 235 236
3 237 238 239
3 237 239 240
3 241 242 243
3 241 243 244
3 228 245 246
3 228 246 229
3 247 248 249
3 247 249 250
3 198 251 252
3 198 252 199
3 253 254 255
3 256 253 255
3 256 257 253
3 258 257 256
3 256 259 258
3 260 261 262
3 261 263 262
3 264 265 266
3 262 263 267
3 263 265 267
3 268 267 265
